<?xml version="1.0" encoding="utf-8" standalone="no"?>
<!DOCTYPE svg PUBLIC "-//W3C//DTD SVG 1.1//EN"
  "http://www.w3.org/Graphics/SVG/1.1/DTD/svg11.dtd">
<svg xmlns:xlink="http://www.w3.org/1999/xlink" width="576pt" height="576pt" viewBox="0 0 576 576" xmlns="http://www.w3.org/2000/svg" version="1.1">
 <metadata>
  <rdf:RDF xmlns:dc="http://purl.org/dc/elements/1.1/" xmlns:cc="http://creativecommons.org/ns#" xmlns:rdf="http://www.w3.org/1999/02/22-rdf-syntax-ns#">
   <cc:Work>
    <dc:type rdf:resource="http://purl.org/dc/dcmitype/StillImage"/>
    <dc:date>2025-06-11T13:44:08.681127</dc:date>
    <dc:format>image/svg+xml</dc:format>
    <dc:creator>
     <cc:Agent>
      <dc:title>Matplotlib v3.10.3, https://matplotlib.org/</dc:title>
     </cc:Agent>
    </dc:creator>
   </cc:Work>
  </rdf:RDF>
 </metadata>
 <defs>
  <style type="text/css">*{stroke-linejoin: round; stroke-linecap: butt}</style>
 </defs>
 <g id="figure_1">
  <g id="patch_1">
   <path d="M 0 576 
L 576 576 
L 576 0 
L 0 0 
z
" style="fill: #ffffff"/>
  </g>
  <g id="axes_1">
   <g id="patch_2">
    <path d="M 73.44 512.64 
L 516.96 512.64 
L 516.96 69.12 
L 73.44 69.12 
z
"/>
   </g>
   <g id="PathCollection_1">
    <path d="M 292.393345 382.73786 
C 292.615068 382.73786 292.827739 382.649769 292.98452 382.492988 
C 293.141302 382.336206 293.229393 382.123535 293.229393 381.901812 
C 293.229393 381.68009 293.141302 381.467418 292.98452 381.310637 
C 292.827739 381.153855 292.615068 381.065764 292.393345 381.065764 
C 292.171622 381.065764 291.958951 381.153855 291.80217 381.310637 
C 291.645388 381.467418 291.557297 381.68009 291.557297 381.901812 
C 291.557297 382.123535 291.645388 382.336206 291.80217 382.492988 
C 291.958951 382.649769 292.171622 382.73786 292.393345 382.73786 
z
" clip-path="url(#pfd899912d6)" style="fill: #ffffe5; fill-opacity: 0.8; stroke: #ffffe5; stroke-opacity: 0.8"/>
    <path d="M 232.705161 479.589563 
C 232.912008 479.589563 233.110411 479.507382 233.256674 479.361119 
C 233.402937 479.214856 233.485119 479.016453 233.485119 478.809605 
C 233.485119 478.602758 233.402937 478.404355 233.256674 478.258092 
C 233.110411 478.111828 232.912008 478.029647 232.705161 478.029647 
C 232.498313 478.029647 232.29991 478.111828 232.153647 478.258092 
C 232.007384 478.404355 231.925203 478.602758 231.925203 478.809605 
C 231.925203 479.016453 232.007384 479.214856 232.153647 479.361119 
C 232.29991 479.507382 232.498313 479.589563 232.705161 479.589563 
z
" clip-path="url(#pfd899912d6)" style="fill: #ffffdf; fill-opacity: 0.8; stroke: #ffffdf; stroke-opacity: 0.8"/>
    <path d="M 466.672232 336.718161 
C 466.811021 336.718161 466.944144 336.66302 467.042282 336.564881 
C 467.140421 336.466743 467.195562 336.33362 467.195562 336.194831 
C 467.195562 336.056042 467.140421 335.922919 467.042282 335.824781 
C 466.944144 335.726642 466.811021 335.671501 466.672232 335.671501 
C 466.533443 335.671501 466.40032 335.726642 466.302182 335.824781 
C 466.204043 335.922919 466.148902 336.056042 466.148902 336.194831 
C 466.148902 336.33362 466.204043 336.466743 466.302182 336.564881 
C 466.40032 336.66302 466.533443 336.718161 466.672232 336.718161 
z
" clip-path="url(#pfd899912d6)" style="fill: #ffffcf; fill-opacity: 0.8; stroke: #ffffcf; stroke-opacity: 0.8"/>
    <path d="M 193.864461 480.953605 
C 194.055347 480.953605 194.23844 480.877765 194.373417 480.742789 
C 194.508393 480.607812 194.584233 480.424719 194.584233 480.233833 
C 194.584233 480.042947 194.508393 479.859854 194.373417 479.724877 
C 194.23844 479.5899 194.055347 479.51406 193.864461 479.51406 
C 193.673575 479.51406 193.490482 479.5899 193.355505 479.724877 
C 193.220528 479.859854 193.144688 480.042947 193.144688 480.233833 
C 193.144688 480.424719 193.220528 480.607812 193.355505 480.742789 
C 193.490482 480.877765 193.673575 480.953605 193.864461 480.953605 
z
" clip-path="url(#pfd899912d6)" style="fill: #ffffdb; fill-opacity: 0.8; stroke: #ffffdb; stroke-opacity: 0.8"/>
    <path d="M 223.022626 330.71527 
C 223.197128 330.71527 223.364506 330.64594 223.487898 330.522548 
C 223.611289 330.399157 223.680619 330.231779 223.680619 330.057277 
C 223.680619 329.882775 223.611289 329.715397 223.487898 329.592005 
C 223.364506 329.468614 223.197128 329.399284 223.022626 329.399284 
C 222.848124 329.399284 222.680746 329.468614 222.557355 329.592005 
C 222.433963 329.715397 222.364633 329.882775 222.364633 330.057277 
C 222.364633 330.231779 222.433963 330.399157 222.557355 330.522548 
C 222.680746 330.64594 222.848124 330.71527 223.022626 330.71527 
z
" clip-path="url(#pfd899912d6)" style="fill: #ffffe3; fill-opacity: 0.8; stroke: #ffffe3; stroke-opacity: 0.8"/>
    <path d="M 140.750704 223.994279 
C 140.867728 223.994279 140.979976 223.947785 141.062725 223.865036 
C 141.145474 223.782287 141.191968 223.67004 141.191968 223.553015 
C 141.191968 223.43599 141.145474 223.323743 141.062725 223.240994 
C 140.979976 223.158245 140.867728 223.111751 140.750704 223.111751 
C 140.633679 223.111751 140.521432 223.158245 140.438683 223.240994 
C 140.355934 223.323743 140.30944 223.43599 140.30944 223.553015 
C 140.30944 223.67004 140.355934 223.782287 140.438683 223.865036 
C 140.521432 223.947785 140.633679 223.994279 140.750704 223.994279 
z
" clip-path="url(#pfd899912d6)" style="fill: #fffff2; fill-opacity: 0.8; stroke: #fffff2; stroke-opacity: 0.8"/>
    <path d="M 239.903804 413.171023 
C 240.150881 413.171023 240.387872 413.072858 240.562582 412.898148 
C 240.737292 412.723438 240.835457 412.486448 240.835457 412.239371 
C 240.835457 411.992294 240.737292 411.755303 240.562582 411.580593 
C 240.387872 411.405883 240.150881 411.307719 239.903804 411.307719 
C 239.656727 411.307719 239.419737 411.405883 239.245027 411.580593 
C 239.070317 411.755303 238.972152 411.992294 238.972152 412.239371 
C 238.972152 412.486448 239.070317 412.723438 239.245027 412.898148 
C 239.419737 413.072858 239.656727 413.171023 239.903804 413.171023 
z
" clip-path="url(#pfd899912d6)" style="fill: #ffffcf; fill-opacity: 0.8; stroke: #ffffcf; stroke-opacity: 0.8"/>
    <path d="M 511.449513 512.867527 
C 511.694533 512.867527 511.92955 512.77018 512.102804 512.596925 
C 512.276059 512.42367 512.373406 512.188653 512.373406 511.943634 
C 512.373406 511.698615 512.276059 511.463598 512.102804 511.290343 
C 511.92955 511.117088 511.694533 511.019741 511.449513 511.019741 
C 511.204494 511.019741 510.969477 511.117088 510.796222 511.290343 
C 510.622968 511.463598 510.52562 511.698615 510.52562 511.943634 
C 510.52562 512.188653 510.622968 512.42367 510.796222 512.596925 
C 510.969477 512.77018 511.204494 512.867527 511.449513 512.867527 
z
" clip-path="url(#pfd899912d6)" style="fill: #ffffc5; fill-opacity: 0.8; stroke: #ffffc5; stroke-opacity: 0.8"/>
    <path d="M 279.91222 361.891276 
C 280.025081 361.891276 280.133336 361.846435 280.213141 361.76663 
C 280.292946 361.686825 280.337786 361.578571 280.337786 361.465709 
C 280.337786 361.352848 280.292946 361.244594 280.213141 361.164788 
C 280.133336 361.084983 280.025081 361.040143 279.91222 361.040143 
C 279.799358 361.040143 279.691104 361.084983 279.611299 361.164788 
C 279.531494 361.244594 279.486654 361.352848 279.486654 361.465709 
C 279.486654 361.578571 279.531494 361.686825 279.611299 361.76663 
C 279.691104 361.846435 279.799358 361.891276 279.91222 361.891276 
z
" clip-path="url(#pfd899912d6)" style="fill: #ffffcf; fill-opacity: 0.8; stroke: #ffffcf; stroke-opacity: 0.8"/>
    <path d="M 463.000051 72.411925 
C 463.229197 72.411925 463.448989 72.320884 463.61102 72.158853 
C 463.77305 71.996823 463.864091 71.777031 463.864091 71.547885 
C 463.864091 71.318739 463.77305 71.098947 463.61102 70.936916 
C 463.448989 70.774885 463.229197 70.683845 463.000051 70.683845 
C 462.770905 70.683845 462.551113 70.774885 462.389082 70.936916 
C 462.227052 71.098947 462.136011 71.318739 462.136011 71.547885 
C 462.136011 71.777031 462.227052 71.996823 462.389082 72.158853 
C 462.551113 72.320884 462.770905 72.411925 463.000051 72.411925 
z
" clip-path="url(#pfd899912d6)" style="fill: #ffffc3; fill-opacity: 0.8; stroke: #ffffc3; stroke-opacity: 0.8"/>
    <path d="M 500.045274 334.352987 
C 500.176071 334.352987 500.301528 334.301021 500.394015 334.208534 
C 500.486502 334.116047 500.538468 333.99059 500.538468 333.859794 
C 500.538468 333.728997 500.486502 333.603541 500.394015 333.511054 
C 500.301528 333.418566 500.176071 333.366601 500.045274 333.366601 
C 499.914478 333.366601 499.789021 333.418566 499.696534 333.511054 
C 499.604047 333.603541 499.552081 333.728997 499.552081 333.859794 
C 499.552081 333.99059 499.604047 334.116047 499.696534 334.208534 
C 499.789021 334.301021 499.914478 334.352987 500.045274 334.352987 
z
" clip-path="url(#pfd899912d6)" style="fill: #ffffd6; fill-opacity: 0.8; stroke: #ffffd6; stroke-opacity: 0.8"/>
    <path d="M 257.044158 158.29444 
C 257.141933 158.29444 257.235716 158.255594 257.304853 158.186456 
C 257.373991 158.117319 257.412837 158.023536 257.412837 157.925761 
C 257.412837 157.827986 257.373991 157.734203 257.304853 157.665065 
C 257.235716 157.595928 257.141933 157.557082 257.044158 157.557082 
C 256.946383 157.557082 256.852599 157.595928 256.783462 157.665065 
C 256.714325 157.734203 256.675478 157.827986 256.675478 157.925761 
C 256.675478 158.023536 256.714325 158.117319 256.783462 158.186456 
C 256.852599 158.255594 256.946383 158.29444 257.044158 158.29444 
z
" clip-path="url(#pfd899912d6)" style="fill: #fffffa; fill-opacity: 0.8; stroke: #fffffa; stroke-opacity: 0.8"/>
    <path d="M 139.58935 478.043245 
C 139.80529 478.043245 140.012415 477.957451 140.165108 477.804758 
C 140.3178 477.652066 140.403594 477.444941 140.403594 477.229001 
C 140.403594 477.01306 140.3178 476.805936 140.165108 476.653243 
C 140.012415 476.50055 139.80529 476.414756 139.58935 476.414756 
C 139.37341 476.414756 139.166285 476.50055 139.013592 476.653243 
C 138.860899 476.805936 138.775105 477.01306 138.775105 477.229001 
C 138.775105 477.444941 138.860899 477.652066 139.013592 477.804758 
C 139.166285 477.957451 139.37341 478.043245 139.58935 478.043245 
z
" clip-path="url(#pfd899912d6)" style="fill: #fffff0; fill-opacity: 0.8; stroke: #fffff0; stroke-opacity: 0.8"/>
    <path d="M 411.729106 222.803177 
C 411.904754 222.803177 412.073231 222.733391 412.197432 222.60919 
C 412.321634 222.484988 412.391419 222.316511 412.391419 222.140863 
C 412.391419 221.965216 412.321634 221.796739 412.197432 221.672537 
C 412.073231 221.548335 411.904754 221.47855 411.729106 221.47855 
C 411.553458 221.47855 411.384981 221.548335 411.26078 221.672537 
C 411.136578 221.796739 411.066792 221.965216 411.066792 222.140863 
C 411.066792 222.316511 411.136578 222.484988 411.26078 222.60919 
C 411.384981 222.733391 411.553458 222.803177 411.729106 222.803177 
z
" clip-path="url(#pfd899912d6)" style="fill: #ffffd2; fill-opacity: 0.8; stroke: #ffffd2; stroke-opacity: 0.8"/>
    <path d="M 382.976364 353.911737 
C 383.162396 353.911737 383.340834 353.837826 383.472378 353.706281 
C 383.603923 353.574737 383.677834 353.396299 383.677834 353.210267 
C 383.677834 353.024235 383.603923 352.845798 383.472378 352.714253 
C 383.340834 352.582709 383.162396 352.508798 382.976364 352.508798 
C 382.790333 352.508798 382.611895 352.582709 382.48035 352.714253 
C 382.348806 352.845798 382.274895 353.024235 382.274895 353.210267 
C 382.274895 353.396299 382.348806 353.574737 382.48035 353.706281 
C 382.611895 353.837826 382.790333 353.911737 382.976364 353.911737 
z
" clip-path="url(#pfd899912d6)" style="fill: #fffff3; fill-opacity: 0.8; stroke: #fffff3; stroke-opacity: 0.8"/>
    <path d="M 76.245484 272.182951 
C 76.434894 272.182951 76.616572 272.107697 76.750505 271.973764 
C 76.884438 271.839831 76.959691 271.658153 76.959691 271.468743 
C 76.959691 271.279333 76.884438 271.097655 76.750505 270.963722 
C 76.616572 270.829789 76.434894 270.754536 76.245484 270.754536 
C 76.056073 270.754536 75.874396 270.829789 75.740462 270.963722 
C 75.606529 271.097655 75.531276 271.279333 75.531276 271.468743 
C 75.531276 271.658153 75.606529 271.839831 75.740462 271.973764 
C 75.874396 272.107697 76.056073 272.182951 76.245484 272.182951 
z
" clip-path="url(#pfd899912d6)" style="fill: #ffffce; fill-opacity: 0.8; stroke: #ffffce; stroke-opacity: 0.8"/>
    <path d="M 238.392264 201.628334 
C 238.634571 201.628334 238.866987 201.532064 239.038324 201.360727 
C 239.209662 201.18939 239.305931 200.956974 239.305931 200.714667 
C 239.305931 200.472359 239.209662 200.239944 239.038324 200.068606 
C 238.866987 199.897269 238.634571 199.800999 238.392264 199.800999 
C 238.149957 199.800999 237.917541 199.897269 237.746204 200.068606 
C 237.574866 200.239944 237.478597 200.472359 237.478597 200.714667 
C 237.478597 200.956974 237.574866 201.18939 237.746204 201.360727 
C 237.917541 201.532064 238.149957 201.628334 238.392264 201.628334 
z
" clip-path="url(#pfd899912d6)" style="fill: #ffffca; fill-opacity: 0.8; stroke: #ffffca; stroke-opacity: 0.8"/>
    <path d="M 487.352893 139.766616 
C 487.529609 139.766616 487.69911 139.696407 487.824067 139.57145 
C 487.949023 139.446493 488.019233 139.276992 488.019233 139.100277 
C 488.019233 138.923561 487.949023 138.75406 487.824067 138.629103 
C 487.69911 138.504147 487.529609 138.433937 487.352893 138.433937 
C 487.176178 138.433937 487.006677 138.504147 486.88172 138.629103 
C 486.756763 138.75406 486.686554 138.923561 486.686554 139.100277 
C 486.686554 139.276992 486.756763 139.446493 486.88172 139.57145 
C 487.006677 139.696407 487.176178 139.766616 487.352893 139.766616 
z
" clip-path="url(#pfd899912d6)" style="fill: #ffffd0; fill-opacity: 0.8; stroke: #ffffd0; stroke-opacity: 0.8"/>
    <path d="M 192.346928 218.435563 
C 192.477207 218.435563 192.602167 218.383803 192.694288 218.291682 
C 192.786409 218.199561 192.83817 218.0746 192.83817 217.944321 
C 192.83817 217.814042 192.786409 217.689082 192.694288 217.596961 
C 192.602167 217.504839 192.477207 217.453079 192.346928 217.453079 
C 192.216649 217.453079 192.091688 217.504839 191.999567 217.596961 
C 191.907446 217.689082 191.855686 217.814042 191.855686 217.944321 
C 191.855686 218.0746 191.907446 218.199561 191.999567 218.291682 
C 192.091688 218.383803 192.216649 218.435563 192.346928 218.435563 
z
" clip-path="url(#pfd899912d6)" style="fill: #ffffec; fill-opacity: 0.8; stroke: #ffffec; stroke-opacity: 0.8"/>
    <path d="M 370.220445 404.726633 
C 370.366682 404.726633 370.50695 404.668532 370.610356 404.565126 
C 370.713762 404.461721 370.771863 404.321453 370.771863 404.175215 
C 370.771863 404.028977 370.713762 403.888709 370.610356 403.785303 
C 370.50695 403.681898 370.366682 403.623797 370.220445 403.623797 
C 370.074207 403.623797 369.933939 403.681898 369.830533 403.785303 
C 369.727127 403.888709 369.669027 404.028977 369.669027 404.175215 
C 369.669027 404.321453 369.727127 404.461721 369.830533 404.565126 
C 369.933939 404.668532 370.074207 404.726633 370.220445 404.726633 
z
" clip-path="url(#pfd899912d6)" style="fill: #ffffd0; fill-opacity: 0.8; stroke: #ffffd0; stroke-opacity: 0.8"/>
    <path d="M 308.66451 104.231129 
C 308.878932 104.231129 309.0846 104.145938 309.236219 103.994319 
C 309.387838 103.8427 309.473029 103.637032 309.473029 103.42261 
C 309.473029 103.208188 309.387838 103.00252 309.236219 102.850901 
C 309.0846 102.699282 308.878932 102.614091 308.66451 102.614091 
C 308.450088 102.614091 308.24442 102.699282 308.0928 102.850901 
C 307.941181 103.00252 307.855991 103.208188 307.855991 103.42261 
C 307.855991 103.637032 307.941181 103.8427 308.0928 103.994319 
C 308.24442 104.145938 308.450088 104.231129 308.66451 104.231129 
z
" clip-path="url(#pfd899912d6)" style="fill: #ffffc1; fill-opacity: 0.8; stroke: #ffffc1; stroke-opacity: 0.8"/>
    <path d="M 103.18233 510.392971 
C 103.329274 510.392971 103.470219 510.33459 103.574124 510.230685 
C 103.678029 510.12678 103.73641 509.985835 103.73641 509.838891 
C 103.73641 509.691947 103.678029 509.551002 103.574124 509.447097 
C 103.470219 509.343192 103.329274 509.284811 103.18233 509.284811 
C 103.035386 509.284811 102.894441 509.343192 102.790536 509.447097 
C 102.686631 509.551002 102.62825 509.691947 102.62825 509.838891 
C 102.62825 509.985835 102.686631 510.12678 102.790536 510.230685 
C 102.894441 510.33459 103.035386 510.392971 103.18233 510.392971 
z
" clip-path="url(#pfd899912d6)" style="fill: #ffffd9; fill-opacity: 0.8; stroke: #ffffd9; stroke-opacity: 0.8"/>
    <path d="M 98.229545 189.161856 
C 98.368688 189.161856 98.502151 189.106574 98.600539 189.008185 
C 98.698928 188.909797 98.75421 188.776334 98.75421 188.637191 
C 98.75421 188.498048 98.698928 188.364586 98.600539 188.266197 
C 98.502151 188.167808 98.368688 188.112526 98.229545 188.112526 
C 98.090402 188.112526 97.95694 188.167808 97.858551 188.266197 
C 97.760162 188.364586 97.70488 188.498048 97.70488 188.637191 
C 97.70488 188.776334 97.760162 188.909797 97.858551 189.008185 
C 97.95694 189.106574 98.090402 189.161856 98.229545 189.161856 
z
" clip-path="url(#pfd899912d6)" style="fill: #fffffe; fill-opacity: 0.8; stroke: #fffffe; stroke-opacity: 0.8"/>
    <path d="M 455.946742 299.788462 
C 456.087882 299.788462 456.22326 299.732386 456.323062 299.632585 
C 456.422863 299.532784 456.478938 299.397406 456.478938 299.256266 
C 456.478938 299.115125 456.422863 298.979747 456.323062 298.879946 
C 456.22326 298.780145 456.087882 298.724069 455.946742 298.724069 
C 455.805602 298.724069 455.670224 298.780145 455.570422 298.879946 
C 455.470621 298.979747 455.414546 299.115125 455.414546 299.256266 
C 455.414546 299.397406 455.470621 299.532784 455.570422 299.632585 
C 455.670224 299.732386 455.805602 299.788462 455.946742 299.788462 
z
" clip-path="url(#pfd899912d6)" style="fill: #ffffdd; fill-opacity: 0.8; stroke: #ffffdd; stroke-opacity: 0.8"/>
    <path d="M 456.91127 499.525565 
C 457.056935 499.525565 457.196653 499.467692 457.299654 499.364691 
C 457.402655 499.261691 457.460528 499.121972 457.460528 498.976307 
C 457.460528 498.830642 457.402655 498.690923 457.299654 498.587923 
C 457.196653 498.484922 457.056935 498.427049 456.91127 498.427049 
C 456.765605 498.427049 456.625886 498.484922 456.522886 498.587923 
C 456.419885 498.690923 456.362012 498.830642 456.362012 498.976307 
C 456.362012 499.121972 456.419885 499.261691 456.522886 499.364691 
C 456.625886 499.467692 456.765605 499.525565 456.91127 499.525565 
z
" clip-path="url(#pfd899912d6)" style="fill: #ffffd0; fill-opacity: 0.8; stroke: #ffffd0; stroke-opacity: 0.8"/>
    <path d="M 335.714027 220.490965 
C 335.915736 220.490965 336.10921 220.410826 336.251839 220.268196 
C 336.394468 220.125567 336.474608 219.932093 336.474608 219.730384 
C 336.474608 219.528676 336.394468 219.335202 336.251839 219.192573 
C 336.10921 219.049943 335.915736 218.969804 335.714027 218.969804 
C 335.512319 218.969804 335.318845 219.049943 335.176215 219.192573 
C 335.033586 219.335202 334.953446 219.528676 334.953446 219.730384 
C 334.953446 219.932093 335.033586 220.125567 335.176215 220.268196 
C 335.318845 220.410826 335.512319 220.490965 335.714027 220.490965 
z
" clip-path="url(#pfd899912d6)" style="fill: #ffffca; fill-opacity: 0.8; stroke: #ffffca; stroke-opacity: 0.8"/>
    <path d="M 349.774199 173.238285 
C 350.01874 173.238285 350.253299 173.141127 350.426216 172.96821 
C 350.599134 172.795293 350.696291 172.560734 350.696291 172.316192 
C 350.696291 172.071651 350.599134 171.837092 350.426216 171.664175 
C 350.253299 171.491258 350.01874 171.3941 349.774199 171.3941 
C 349.529657 171.3941 349.295098 171.491258 349.122181 171.664175 
C 348.949264 171.837092 348.852106 172.071651 348.852106 172.316192 
C 348.852106 172.560734 348.949264 172.795293 349.122181 172.96821 
C 349.295098 173.141127 349.529657 173.238285 349.774199 173.238285 
z
" clip-path="url(#pfd899912d6)" style="fill: #ffffe6; fill-opacity: 0.8; stroke: #ffffe6; stroke-opacity: 0.8"/>
    <path d="M 311.203143 391.06363 
C 311.358795 391.06363 311.508093 391.001789 311.618155 390.891726 
C 311.728218 390.781664 311.790059 390.632366 311.790059 390.476713 
C 311.790059 390.321061 311.728218 390.171763 311.618155 390.061701 
C 311.508093 389.951638 311.358795 389.889797 311.203143 389.889797 
C 311.04749 389.889797 310.898192 389.951638 310.78813 390.061701 
C 310.678067 390.171763 310.616226 390.321061 310.616226 390.476713 
C 310.616226 390.632366 310.678067 390.781664 310.78813 390.891726 
C 310.898192 391.001789 311.04749 391.06363 311.203143 391.06363 
z
" clip-path="url(#pfd899912d6)" style="fill: #ffffc8; fill-opacity: 0.8; stroke: #ffffc8; stroke-opacity: 0.8"/>
    <path d="M 137.026946 428.259044 
C 137.159536 428.259044 137.286714 428.206366 137.380469 428.11261 
C 137.474224 428.018855 137.526903 427.891677 137.526903 427.759087 
C 137.526903 427.626497 137.474224 427.49932 137.380469 427.405564 
C 137.286714 427.311809 137.159536 427.25913 137.026946 427.25913 
C 136.894356 427.25913 136.767178 427.311809 136.673423 427.405564 
C 136.579668 427.49932 136.526989 427.626497 136.526989 427.759087 
C 136.526989 427.891677 136.579668 428.018855 136.673423 428.11261 
C 136.767178 428.206366 136.894356 428.259044 137.026946 428.259044 
z
" clip-path="url(#pfd899912d6)" style="fill: #ffffb6; fill-opacity: 0.8; stroke: #ffffb6; stroke-opacity: 0.8"/>
    <path d="M 469.892194 227.79918 
C 470.084374 227.79918 470.268709 227.722826 470.4046 227.586934 
C 470.540492 227.451043 470.616845 227.266708 470.616845 227.074529 
C 470.616845 226.882349 470.540492 226.698015 470.4046 226.562123 
C 470.268709 226.426232 470.084374 226.349878 469.892194 226.349878 
C 469.700015 226.349878 469.51568 226.426232 469.379789 226.562123 
C 469.243897 226.698015 469.167544 226.882349 469.167544 227.074529 
C 469.167544 227.266708 469.243897 227.451043 469.379789 227.586934 
C 469.51568 227.722826 469.700015 227.79918 469.892194 227.79918 
z
" clip-path="url(#pfd899912d6)" style="fill: #ffffca; fill-opacity: 0.8; stroke: #ffffca; stroke-opacity: 0.8"/>
    <path d="M 125.034484 318.047775 
C 125.227888 318.047775 125.413396 317.970934 125.550154 317.834177 
C 125.686911 317.69742 125.763751 317.511911 125.763751 317.318507 
C 125.763751 317.125103 125.686911 316.939594 125.550154 316.802837 
C 125.413396 316.66608 125.227888 316.589239 125.034484 316.589239 
C 124.84108 316.589239 124.655571 316.66608 124.518814 316.802837 
C 124.382056 316.939594 124.305216 317.125103 124.305216 317.318507 
C 124.305216 317.511911 124.382056 317.69742 124.518814 317.834177 
C 124.655571 317.970934 124.84108 318.047775 125.034484 318.047775 
z
" clip-path="url(#pfd899912d6)" style="fill: #ffffbd; fill-opacity: 0.8; stroke: #ffffbd; stroke-opacity: 0.8"/>
    <path d="M 452.202084 299.233392 
C 452.342899 299.233392 452.477966 299.177445 452.577537 299.077874 
C 452.677108 298.978302 452.733055 298.843236 452.733055 298.702421 
C 452.733055 298.561606 452.677108 298.426539 452.577537 298.326968 
C 452.477966 298.227396 452.342899 298.17145 452.202084 298.17145 
C 452.061269 298.17145 451.926202 298.227396 451.826631 298.326968 
C 451.727059 298.426539 451.671113 298.561606 451.671113 298.702421 
C 451.671113 298.843236 451.727059 298.978302 451.826631 299.077874 
C 451.926202 299.177445 452.061269 299.233392 452.202084 299.233392 
z
" clip-path="url(#pfd899912d6)" style="fill: #ffffbc; fill-opacity: 0.8; stroke: #ffffbc; stroke-opacity: 0.8"/>
    <path d="M 439.955035 238.502349 
C 440.167099 238.502349 440.370507 238.418095 440.520459 238.268143 
C 440.670411 238.118191 440.754665 237.914784 440.754665 237.702719 
C 440.754665 237.490655 440.670411 237.287247 440.520459 237.137295 
C 440.370507 236.987343 440.167099 236.903089 439.955035 236.903089 
C 439.742971 236.903089 439.539563 236.987343 439.389611 237.137295 
C 439.239659 237.287247 439.155405 237.490655 439.155405 237.702719 
C 439.155405 237.914784 439.239659 238.118191 439.389611 238.268143 
C 439.539563 238.418095 439.742971 238.502349 439.955035 238.502349 
z
" clip-path="url(#pfd899912d6)" style="fill: #ffffe2; fill-opacity: 0.8; stroke: #ffffe2; stroke-opacity: 0.8"/>
    <path d="M 259.805553 222.230147 
C 259.986412 222.230147 260.159887 222.158291 260.287774 222.030405 
C 260.41566 221.902518 260.487516 221.729043 260.487516 221.548184 
C 260.487516 221.367326 260.41566 221.19385 260.287774 221.065964 
C 260.159887 220.938077 259.986412 220.866222 259.805553 220.866222 
C 259.624695 220.866222 259.451219 220.938077 259.323333 221.065964 
C 259.195446 221.19385 259.123591 221.367326 259.123591 221.548184 
C 259.123591 221.729043 259.195446 221.902518 259.323333 222.030405 
C 259.451219 222.158291 259.624695 222.230147 259.805553 222.230147 
z
" clip-path="url(#pfd899912d6)" style="fill: #ffffc9; fill-opacity: 0.8; stroke: #ffffc9; stroke-opacity: 0.8"/>
    <path d="M 502.280233 428.869376 
C 502.48361 428.869376 502.678685 428.788574 502.822494 428.644765 
C 502.966303 428.500956 503.047106 428.305881 503.047106 428.102504 
C 503.047106 427.899127 502.966303 427.704053 502.822494 427.560244 
C 502.678685 427.416434 502.48361 427.335632 502.280233 427.335632 
C 502.076857 427.335632 501.881782 427.416434 501.737973 427.560244 
C 501.594164 427.704053 501.513361 427.899127 501.513361 428.102504 
C 501.513361 428.305881 501.594164 428.500956 501.737973 428.644765 
C 501.881782 428.788574 502.076857 428.869376 502.280233 428.869376 
z
" clip-path="url(#pfd899912d6)" style="fill: #fffffe; fill-opacity: 0.8; stroke: #fffffe; stroke-opacity: 0.8"/>
    <path d="M 283.186108 480.639144 
C 283.303602 480.639144 283.416299 480.592464 283.499379 480.509383 
C 283.58246 480.426303 283.629141 480.313606 283.629141 480.196112 
C 283.629141 480.078619 283.58246 479.965922 283.499379 479.882841 
C 283.416299 479.799761 283.303602 479.75308 283.186108 479.75308 
C 283.068615 479.75308 282.955918 479.799761 282.872837 479.882841 
C 282.789757 479.965922 282.743076 480.078619 282.743076 480.196112 
C 282.743076 480.313606 282.789757 480.426303 282.872837 480.509383 
C 282.955918 480.592464 283.068615 480.639144 283.186108 480.639144 
z
" clip-path="url(#pfd899912d6)" style="fill: #ffffc6; fill-opacity: 0.8; stroke: #ffffc6; stroke-opacity: 0.8"/>
    <path d="M 489.781108 190.439511 
C 490.006681 190.439511 490.223046 190.349889 490.382551 190.190385 
C 490.542056 190.03088 490.631677 189.814515 490.631677 189.588941 
C 490.631677 189.363368 490.542056 189.147003 490.382551 188.987498 
C 490.223046 188.827993 490.006681 188.738372 489.781108 188.738372 
C 489.555534 188.738372 489.339169 188.827993 489.179665 188.987498 
C 489.02016 189.147003 488.930539 189.363368 488.930539 189.588941 
C 488.930539 189.814515 489.02016 190.03088 489.179665 190.190385 
C 489.339169 190.349889 489.555534 190.439511 489.781108 190.439511 
z
" clip-path="url(#pfd899912d6)" style="fill: #fffffd; fill-opacity: 0.8; stroke: #fffffd; stroke-opacity: 0.8"/>
    <path d="M 77.292081 290.479327 
C 77.507022 290.479327 77.713189 290.39393 77.865175 290.241944 
C 78.017162 290.089957 78.102559 289.88379 78.102559 289.668849 
C 78.102559 289.453908 78.017162 289.247741 77.865175 289.095754 
C 77.713189 288.943768 77.507022 288.858371 77.292081 288.858371 
C 77.077139 288.858371 76.870972 288.943768 76.718986 289.095754 
C 76.566999 289.247741 76.481602 289.453908 76.481602 289.668849 
C 76.481602 289.88379 76.566999 290.089957 76.718986 290.241944 
C 76.870972 290.39393 77.077139 290.479327 77.292081 290.479327 
z
" clip-path="url(#pfd899912d6)" style="fill: #ffffda; fill-opacity: 0.8; stroke: #ffffda; stroke-opacity: 0.8"/>
    <path d="M 93.543162 430.975301 
C 93.669251 430.975301 93.790192 430.925206 93.87935 430.836048 
C 93.968508 430.74689 94.018603 430.625949 94.018603 430.49986 
C 94.018603 430.373772 93.968508 430.252831 93.87935 430.163673 
C 93.790192 430.074515 93.669251 430.02442 93.543162 430.02442 
C 93.417074 430.02442 93.296133 430.074515 93.206975 430.163673 
C 93.117817 430.252831 93.067722 430.373772 93.067722 430.49986 
C 93.067722 430.625949 93.117817 430.74689 93.206975 430.836048 
C 93.296133 430.925206 93.417074 430.975301 93.543162 430.975301 
z
" clip-path="url(#pfd899912d6)" style="fill: #fffff1; fill-opacity: 0.8; stroke: #fffff1; stroke-opacity: 0.8"/>
    <path d="M 211.646235 214.921074 
C 211.757675 214.921074 211.864565 214.876799 211.943364 214.797999 
C 212.022164 214.7192 212.066439 214.612309 212.066439 214.50087 
C 212.066439 214.389431 212.022164 214.28254 211.943364 214.203741 
C 211.864565 214.124941 211.757675 214.080666 211.646235 214.080666 
C 211.534796 214.080666 211.427906 214.124941 211.349106 214.203741 
C 211.270306 214.28254 211.226031 214.389431 211.226031 214.50087 
C 211.226031 214.612309 211.270306 214.7192 211.349106 214.797999 
C 211.427906 214.876799 211.534796 214.921074 211.646235 214.921074 
z
" clip-path="url(#pfd899912d6)" style="fill: #fffff1; fill-opacity: 0.8; stroke: #fffff1; stroke-opacity: 0.8"/>
    <path d="M 515.964529 347.042103 
C 516.1745 347.042103 516.3759 346.958681 516.524372 346.810209 
C 516.672844 346.661737 516.756266 346.460337 516.756266 346.250366 
C 516.756266 346.040395 516.672844 345.838996 516.524372 345.690524 
C 516.3759 345.542052 516.1745 345.45863 515.964529 345.45863 
C 515.754558 345.45863 515.553158 345.542052 515.404687 345.690524 
C 515.256215 345.838996 515.172792 346.040395 515.172792 346.250366 
C 515.172792 346.460337 515.256215 346.661737 515.404687 346.810209 
C 515.553158 346.958681 515.754558 347.042103 515.964529 347.042103 
z
" clip-path="url(#pfd899912d6)" style="fill: #ffffe3; fill-opacity: 0.8; stroke: #ffffe3; stroke-opacity: 0.8"/>
    <path d="M 444.491288 369.855645 
C 444.679159 369.855645 444.859361 369.781003 444.992206 369.648158 
C 445.125051 369.515313 445.199693 369.335111 445.199693 369.14724 
C 445.199693 368.959369 445.125051 368.779167 444.992206 368.646322 
C 444.859361 368.513477 444.679159 368.438835 444.491288 368.438835 
C 444.303417 368.438835 444.123215 368.513477 443.99037 368.646322 
C 443.857525 368.779167 443.782883 368.959369 443.782883 369.14724 
C 443.782883 369.335111 443.857525 369.515313 443.99037 369.648158 
C 444.123215 369.781003 444.303417 369.855645 444.491288 369.855645 
z
" clip-path="url(#pfd899912d6)" style="fill: #ffffed; fill-opacity: 0.8; stroke: #ffffed; stroke-opacity: 0.8"/>
    <path d="M 401.319365 119.550498 
C 401.506127 119.550498 401.685266 119.476297 401.817326 119.344236 
C 401.949387 119.212175 402.023589 119.033037 402.023589 118.846275 
C 402.023589 118.659512 401.949387 118.480374 401.817326 118.348313 
C 401.685266 118.216253 401.506127 118.142051 401.319365 118.142051 
C 401.132603 118.142051 400.953465 118.216253 400.821404 118.348313 
C 400.689343 118.480374 400.615141 118.659512 400.615141 118.846275 
C 400.615141 119.033037 400.689343 119.212175 400.821404 119.344236 
C 400.953465 119.476297 401.132603 119.550498 401.319365 119.550498 
z
" clip-path="url(#pfd899912d6)" style="fill: #ffffd6; fill-opacity: 0.8; stroke: #ffffd6; stroke-opacity: 0.8"/>
    <path d="M 466.789203 366.262365 
C 466.932215 366.262365 467.069389 366.205546 467.170513 366.104421 
C 467.271638 366.003297 467.328457 365.866123 467.328457 365.723111 
C 467.328457 365.580099 467.271638 365.442925 467.170513 365.3418 
C 467.069389 365.240676 466.932215 365.183857 466.789203 365.183857 
C 466.646191 365.183857 466.509017 365.240676 466.407893 365.3418 
C 466.306768 365.442925 466.249949 365.580099 466.249949 365.723111 
C 466.249949 365.866123 466.306768 366.003297 466.407893 366.104421 
C 466.509017 366.205546 466.646191 366.262365 466.789203 366.262365 
z
" clip-path="url(#pfd899912d6)" style="fill: #ffffe0; fill-opacity: 0.8; stroke: #ffffe0; stroke-opacity: 0.8"/>
    <path d="M 111.60411 380.730255 
C 111.759281 380.730255 111.908118 380.668605 112.017841 380.558882 
C 112.127564 380.44916 112.189214 380.300323 112.189214 380.145152 
C 112.189214 379.989981 112.127564 379.841144 112.017841 379.731421 
C 111.908118 379.621698 111.759281 379.560048 111.60411 379.560048 
C 111.448939 379.560048 111.300102 379.621698 111.19038 379.731421 
C 111.080657 379.841144 111.019007 379.989981 111.019007 380.145152 
C 111.019007 380.300323 111.080657 380.44916 111.19038 380.558882 
C 111.300102 380.668605 111.448939 380.730255 111.60411 380.730255 
z
" clip-path="url(#pfd899912d6)" style="fill: #ffffe8; fill-opacity: 0.8; stroke: #ffffe8; stroke-opacity: 0.8"/>
    <path d="M 513.524097 433.182116 
C 513.645523 433.182116 513.761991 433.133873 513.847852 433.048012 
C 513.933713 432.962151 513.981956 432.845682 513.981956 432.724256 
C 513.981956 432.60283 513.933713 432.486362 513.847852 432.400501 
C 513.761991 432.31464 513.645523 432.266397 513.524097 432.266397 
C 513.402671 432.266397 513.286202 432.31464 513.200341 432.400501 
C 513.11448 432.486362 513.066237 432.60283 513.066237 432.724256 
C 513.066237 432.845682 513.11448 432.962151 513.200341 433.048012 
C 513.286202 433.133873 513.402671 433.182116 513.524097 433.182116 
z
" clip-path="url(#pfd899912d6)" style="fill: #ffffe2; fill-opacity: 0.8; stroke: #ffffe2; stroke-opacity: 0.8"/>
    <path d="M 269.747452 70.059529 
C 269.87883 70.059529 270.004845 70.007332 270.097744 69.914433 
C 270.190642 69.821535 270.242839 69.69552 270.242839 69.564141 
C 270.242839 69.432763 270.190642 69.306748 270.097744 69.21385 
C 270.004845 69.120951 269.87883 69.068754 269.747452 69.068754 
C 269.616074 69.068754 269.490058 69.120951 269.39716 69.21385 
C 269.304262 69.306748 269.252064 69.432763 269.252064 69.564141 
C 269.252064 69.69552 269.304262 69.821535 269.39716 69.914433 
C 269.490058 70.007332 269.616074 70.059529 269.747452 70.059529 
z
" clip-path="url(#pfd899912d6)" style="fill: #ffffd0; fill-opacity: 0.8; stroke: #ffffd0; stroke-opacity: 0.8"/>
    <path d="M 344.145746 269.292362 
C 344.383955 269.292362 344.612439 269.197721 344.780877 269.029282 
C 344.949316 268.860843 345.043957 268.632359 345.043957 268.394151 
C 345.043957 268.155942 344.949316 267.927458 344.780877 267.759019 
C 344.612439 267.590581 344.383955 267.495939 344.145746 267.495939 
C 343.907538 267.495939 343.679054 267.590581 343.510615 267.759019 
C 343.342176 267.927458 343.247535 268.155942 343.247535 268.394151 
C 343.247535 268.632359 343.342176 268.860843 343.510615 269.029282 
C 343.679054 269.197721 343.907538 269.292362 344.145746 269.292362 
z
" clip-path="url(#pfd899912d6)" style="fill: #ffffb9; fill-opacity: 0.8; stroke: #ffffb9; stroke-opacity: 0.8"/>
    <path d="M 402.258511 430.109282 
C 402.407574 430.109282 402.550553 430.050059 402.655957 429.944654 
C 402.761361 429.83925 402.820585 429.696272 402.820585 429.547208 
C 402.820585 429.398144 402.761361 429.255165 402.655957 429.149761 
C 402.550553 429.044357 402.407574 428.985134 402.258511 428.985134 
C 402.109447 428.985134 401.966468 429.044357 401.861064 429.149761 
C 401.75566 429.255165 401.696436 429.398144 401.696436 429.547208 
C 401.696436 429.696272 401.75566 429.83925 401.861064 429.944654 
C 401.966468 430.050059 402.109447 430.109282 402.258511 430.109282 
z
" clip-path="url(#pfd899912d6)" style="fill: #ffffb3; fill-opacity: 0.8; stroke: #ffffb3; stroke-opacity: 0.8"/>
    <path d="M 79.87179 89.695552 
C 79.985057 89.695552 80.0937 89.65055 80.173791 89.570459 
C 80.253883 89.490367 80.298884 89.381724 80.298884 89.268457 
C 80.298884 89.15519 80.253883 89.046547 80.173791 88.966456 
C 80.0937 88.886364 79.985057 88.841363 79.87179 88.841363 
C 79.758523 88.841363 79.64988 88.886364 79.569788 88.966456 
C 79.489697 89.046547 79.444695 89.15519 79.444695 89.268457 
C 79.444695 89.381724 79.489697 89.490367 79.569788 89.570459 
C 79.64988 89.65055 79.758523 89.695552 79.87179 89.695552 
z
" clip-path="url(#pfd899912d6)" style="fill: #fffff3; fill-opacity: 0.8; stroke: #fffff3; stroke-opacity: 0.8"/>
    <path d="M 118.988438 119.933876 
C 119.100596 119.933876 119.208175 119.889316 119.287482 119.810008 
C 119.366789 119.730701 119.41135 119.623122 119.41135 119.510964 
C 119.41135 119.398806 119.366789 119.291227 119.287482 119.21192 
C 119.208175 119.132613 119.100596 119.088052 118.988438 119.088052 
C 118.87628 119.088052 118.768701 119.132613 118.689394 119.21192 
C 118.610086 119.291227 118.565526 119.398806 118.565526 119.510964 
C 118.565526 119.623122 118.610086 119.730701 118.689394 119.810008 
C 118.768701 119.889316 118.87628 119.933876 118.988438 119.933876 
z
" clip-path="url(#pfd899912d6)" style="fill: #fffff8; fill-opacity: 0.8; stroke: #fffff8; stroke-opacity: 0.8"/>
    <path d="M 321.369949 96.122645 
C 321.582225 96.122645 321.785836 96.038307 321.935937 95.888205 
C 322.086039 95.738103 322.170378 95.534493 322.170378 95.322217 
C 322.170378 95.10994 322.086039 94.90633 321.935937 94.756228 
C 321.785836 94.606126 321.582225 94.521788 321.369949 94.521788 
C 321.157673 94.521788 320.954062 94.606126 320.80396 94.756228 
C 320.653858 94.90633 320.56952 95.10994 320.56952 95.322217 
C 320.56952 95.534493 320.653858 95.738103 320.80396 95.888205 
C 320.954062 96.038307 321.157673 96.122645 321.369949 96.122645 
z
" clip-path="url(#pfd899912d6)" style="fill: #ffffd8; fill-opacity: 0.8; stroke: #ffffd8; stroke-opacity: 0.8"/>
    <path d="M 122.501996 281.268038 
C 122.650094 281.268038 122.792147 281.209198 122.896869 281.104477 
C 123.00159 280.999755 123.06043 280.857702 123.06043 280.709604 
C 123.06043 280.561505 123.00159 280.419453 122.896869 280.314731 
C 122.792147 280.21001 122.650094 280.151169 122.501996 280.151169 
C 122.353897 280.151169 122.211844 280.21001 122.107123 280.314731 
C 122.002401 280.419453 121.943561 280.561505 121.943561 280.709604 
C 121.943561 280.857702 122.002401 280.999755 122.107123 281.104477 
C 122.211844 281.209198 122.353897 281.268038 122.501996 281.268038 
z
" clip-path="url(#pfd899912d6)" style="fill: #ffffcc; fill-opacity: 0.8; stroke: #ffffcc; stroke-opacity: 0.8"/>
    <path d="M 159.296411 173.152768 
C 159.506643 173.152768 159.708294 173.069242 159.85695 172.920585 
C 160.005607 172.771928 160.089134 172.570278 160.089134 172.360046 
C 160.089134 172.149813 160.005607 171.948163 159.85695 171.799506 
C 159.708294 171.650849 159.506643 171.567323 159.296411 171.567323 
C 159.086178 171.567323 158.884528 171.650849 158.735871 171.799506 
C 158.587215 171.948163 158.503688 172.149813 158.503688 172.360046 
C 158.503688 172.570278 158.587215 172.771928 158.735871 172.920585 
C 158.884528 173.069242 159.086178 173.152768 159.296411 173.152768 
z
" clip-path="url(#pfd899912d6)" style="fill: #ffffdc; fill-opacity: 0.8; stroke: #ffffdc; stroke-opacity: 0.8"/>
    <path d="M 412.755965 248.153271 
C 412.952384 248.153271 413.140784 248.075233 413.279673 247.936344 
C 413.418561 247.797455 413.496599 247.609055 413.496599 247.412637 
C 413.496599 247.216218 413.418561 247.027818 413.279673 246.888929 
C 413.140784 246.750041 412.952384 246.672003 412.755965 246.672003 
C 412.559547 246.672003 412.371147 246.750041 412.232258 246.888929 
C 412.093369 247.027818 412.015331 247.216218 412.015331 247.412637 
C 412.015331 247.609055 412.093369 247.797455 412.232258 247.936344 
C 412.371147 248.075233 412.559547 248.153271 412.755965 248.153271 
z
" clip-path="url(#pfd899912d6)" style="fill: #ffffe1; fill-opacity: 0.8; stroke: #ffffe1; stroke-opacity: 0.8"/>
    <path d="M 145.129487 243.117404 
C 145.242623 243.117404 145.35114 243.072455 145.431139 242.992456 
C 145.511138 242.912457 145.556087 242.803939 145.556087 242.690804 
C 145.556087 242.577668 145.511138 242.46915 145.431139 242.389151 
C 145.35114 242.309152 145.242623 242.264203 145.129487 242.264203 
C 145.016351 242.264203 144.907834 242.309152 144.827834 242.389151 
C 144.747835 242.46915 144.702886 242.577668 144.702886 242.690804 
C 144.702886 242.803939 144.747835 242.912457 144.827834 242.992456 
C 144.907834 243.072455 145.016351 243.117404 145.129487 243.117404 
z
" clip-path="url(#pfd899912d6)" style="fill: #ffffbd; fill-opacity: 0.8; stroke: #ffffbd; stroke-opacity: 0.8"/>
    <path d="M 502.627617 323.831183 
C 502.728329 323.831183 502.82493 323.791169 502.896145 323.719955 
C 502.967359 323.64874 503.007373 323.552139 503.007373 323.451427 
C 503.007373 323.350714 502.967359 323.254113 502.896145 323.182899 
C 502.82493 323.111684 502.728329 323.071671 502.627617 323.071671 
C 502.526904 323.071671 502.430303 323.111684 502.359088 323.182899 
C 502.287874 323.254113 502.24786 323.350714 502.24786 323.451427 
C 502.24786 323.552139 502.287874 323.64874 502.359088 323.719955 
C 502.430303 323.791169 502.526904 323.831183 502.627617 323.831183 
z
" clip-path="url(#pfd899912d6)" style="fill: #ffffc7; fill-opacity: 0.8; stroke: #ffffc7; stroke-opacity: 0.8"/>
    <path d="M 468.614115 467.93793 
C 468.799607 467.93793 468.977527 467.864233 469.108689 467.73307 
C 469.239852 467.601908 469.313548 467.423988 469.313548 467.238496 
C 469.313548 467.053004 469.239852 466.875085 469.108689 466.743922 
C 468.977527 466.61276 468.799607 466.539063 468.614115 466.539063 
C 468.428623 466.539063 468.250704 466.61276 468.119541 466.743922 
C 467.988379 466.875085 467.914682 467.053004 467.914682 467.238496 
C 467.914682 467.423988 467.988379 467.601908 468.119541 467.73307 
C 468.250704 467.864233 468.428623 467.93793 468.614115 467.93793 
z
" clip-path="url(#pfd899912d6)" style="fill: #ffffbd; fill-opacity: 0.8; stroke: #ffffbd; stroke-opacity: 0.8"/>
    <path d="M 331.617422 269.395252 
C 331.799046 269.395252 331.973257 269.323092 332.101684 269.194664 
C 332.230112 269.066236 332.302273 268.892026 332.302273 268.710401 
C 332.302273 268.528777 332.230112 268.354566 332.101684 268.226139 
C 331.973257 268.097711 331.799046 268.02555 331.617422 268.02555 
C 331.435797 268.02555 331.261587 268.097711 331.133159 268.226139 
C 331.004731 268.354566 330.932571 268.528777 330.932571 268.710401 
C 330.932571 268.892026 331.004731 269.066236 331.133159 269.194664 
C 331.261587 269.323092 331.435797 269.395252 331.617422 269.395252 
z
" clip-path="url(#pfd899912d6)" style="fill: #fffff8; fill-opacity: 0.8; stroke: #fffff8; stroke-opacity: 0.8"/>
    <path d="M 479.927818 473.738757 
C 480.024834 473.738757 480.117889 473.700213 480.186489 473.631612 
C 480.25509 473.563012 480.293635 473.469957 480.293635 473.372941 
C 480.293635 473.275925 480.25509 473.18287 480.186489 473.114269 
C 480.117889 473.045669 480.024834 473.007124 479.927818 473.007124 
C 479.830802 473.007124 479.737747 473.045669 479.669146 473.114269 
C 479.600546 473.18287 479.562001 473.275925 479.562001 473.372941 
C 479.562001 473.469957 479.600546 473.563012 479.669146 473.631612 
C 479.737747 473.700213 479.830802 473.738757 479.927818 473.738757 
z
" clip-path="url(#pfd899912d6)" style="fill: #fffff7; fill-opacity: 0.8; stroke: #fffff7; stroke-opacity: 0.8"/>
    <path d="M 140.611221 341.279101 
C 140.857229 341.279101 141.093195 341.181361 141.267149 341.007407 
C 141.441103 340.833453 141.538843 340.597487 141.538843 340.351479 
C 141.538843 340.105471 141.441103 339.869506 141.267149 339.695552 
C 141.093195 339.521598 140.857229 339.423858 140.611221 339.423858 
C 140.365213 339.423858 140.129248 339.521598 139.955294 339.695552 
C 139.78134 339.869506 139.6836 340.105471 139.6836 340.351479 
C 139.6836 340.597487 139.78134 340.833453 139.955294 341.007407 
C 140.129248 341.181361 140.365213 341.279101 140.611221 341.279101 
z
" clip-path="url(#pfd899912d6)" style="fill: #ffffe4; fill-opacity: 0.8; stroke: #ffffe4; stroke-opacity: 0.8"/>
    <path d="M 452.910809 411.23852 
C 453.128403 411.23852 453.337114 411.152069 453.490977 410.998206 
C 453.644839 410.844344 453.73129 410.635633 453.73129 410.418039 
C 453.73129 410.200444 453.644839 409.991733 453.490977 409.837871 
C 453.337114 409.684009 453.128403 409.597557 452.910809 409.597557 
C 452.693215 409.597557 452.484503 409.684009 452.330641 409.837871 
C 452.176779 409.991733 452.090328 410.200444 452.090328 410.418039 
C 452.090328 410.635633 452.176779 410.844344 452.330641 410.998206 
C 452.484503 411.152069 452.693215 411.23852 452.910809 411.23852 
z
" clip-path="url(#pfd899912d6)" style="fill: #ffffd6; fill-opacity: 0.8; stroke: #ffffd6; stroke-opacity: 0.8"/>
    <path d="M 512.925105 266.980866 
C 513.114211 266.980866 513.295597 266.905734 513.429315 266.772016 
C 513.563033 266.638298 513.638165 266.456912 513.638165 266.267806 
C 513.638165 266.0787 513.563033 265.897314 513.429315 265.763596 
C 513.295597 265.629879 513.114211 265.554746 512.925105 265.554746 
C 512.735999 265.554746 512.554614 265.629879 512.420896 265.763596 
C 512.287178 265.897314 512.212045 266.0787 512.212045 266.267806 
C 512.212045 266.456912 512.287178 266.638298 512.420896 266.772016 
C 512.554614 266.905734 512.735999 266.980866 512.925105 266.980866 
z
" clip-path="url(#pfd899912d6)" style="fill: #ffffd8; fill-opacity: 0.8; stroke: #ffffd8; stroke-opacity: 0.8"/>
    <path d="M 182.180828 355.778951 
C 182.376067 355.778951 182.563336 355.701382 182.701391 355.563327 
C 182.839446 355.425272 182.917016 355.238003 182.917016 355.042764 
C 182.917016 354.847524 182.839446 354.660255 182.701391 354.5222 
C 182.563336 354.384145 182.376067 354.306576 182.180828 354.306576 
C 181.985588 354.306576 181.798319 354.384145 181.660264 354.5222 
C 181.522209 354.660255 181.44464 354.847524 181.44464 355.042764 
C 181.44464 355.238003 181.522209 355.425272 181.660264 355.563327 
C 181.798319 355.701382 181.985588 355.778951 182.180828 355.778951 
z
" clip-path="url(#pfd899912d6)" style="fill: #ffffe2; fill-opacity: 0.8; stroke: #ffffe2; stroke-opacity: 0.8"/>
    <path d="M 117.759302 225.704332 
C 117.987394 225.704332 118.206176 225.61371 118.367462 225.452424 
C 118.528747 225.291138 118.61937 225.072357 118.61937 224.844264 
C 118.61937 224.616172 118.528747 224.39739 118.367462 224.236104 
C 118.206176 224.074818 117.987394 223.984196 117.759302 223.984196 
C 117.531209 223.984196 117.312427 224.074818 117.151142 224.236104 
C 116.989856 224.39739 116.899233 224.616172 116.899233 224.844264 
C 116.899233 225.072357 116.989856 225.291138 117.151142 225.452424 
C 117.312427 225.61371 117.531209 225.704332 117.759302 225.704332 
z
" clip-path="url(#pfd899912d6)" style="fill: #fffff4; fill-opacity: 0.8; stroke: #fffff4; stroke-opacity: 0.8"/>
    <path d="M 516.708121 469.147624 
C 516.944101 469.147624 517.170447 469.053869 517.337309 468.887006 
C 517.504172 468.720143 517.597928 468.493797 517.597928 468.257818 
C 517.597928 468.021838 517.504172 467.795492 517.337309 467.628629 
C 517.170447 467.461767 516.944101 467.368011 516.708121 467.368011 
C 516.472142 467.368011 516.245796 467.461767 516.078933 467.628629 
C 515.91207 467.795492 515.818315 468.021838 515.818315 468.257818 
C 515.818315 468.493797 515.91207 468.720143 516.078933 468.887006 
C 516.245796 469.053869 516.472142 469.147624 516.708121 469.147624 
z
" clip-path="url(#pfd899912d6)" style="fill: #fffff5; fill-opacity: 0.8; stroke: #fffff5; stroke-opacity: 0.8"/>
    <path d="M 395.65213 219.936195 
C 395.860368 219.936195 396.060105 219.853461 396.207351 219.706215 
C 396.354597 219.558969 396.437331 219.359232 396.437331 219.150994 
C 396.437331 218.942757 396.354597 218.74302 396.207351 218.595774 
C 396.060105 218.448528 395.860368 218.365794 395.65213 218.365794 
C 395.443893 218.365794 395.244156 218.448528 395.09691 218.595774 
C 394.949663 218.74302 394.86693 218.942757 394.86693 219.150994 
C 394.86693 219.359232 394.949663 219.558969 395.09691 219.706215 
C 395.244156 219.853461 395.443893 219.936195 395.65213 219.936195 
z
" clip-path="url(#pfd899912d6)" style="fill: #ffffc3; fill-opacity: 0.8; stroke: #ffffc3; stroke-opacity: 0.8"/>
    <path d="M 162.600291 124.375567 
C 162.777827 124.375567 162.948116 124.305032 163.073653 124.179495 
C 163.19919 124.053958 163.269726 123.883669 163.269726 123.706133 
C 163.269726 123.528597 163.19919 123.358309 163.073653 123.232772 
C 162.948116 123.107235 162.777827 123.036699 162.600291 123.036699 
C 162.422755 123.036699 162.252467 123.107235 162.12693 123.232772 
C 162.001393 123.358309 161.930857 123.528597 161.930857 123.706133 
C 161.930857 123.883669 162.001393 124.053958 162.12693 124.179495 
C 162.252467 124.305032 162.422755 124.375567 162.600291 124.375567 
z
" clip-path="url(#pfd899912d6)" style="fill: #ffffc7; fill-opacity: 0.8; stroke: #ffffc7; stroke-opacity: 0.8"/>
    <path d="M 97.097593 312.880084 
C 97.33045 312.880084 97.553801 312.787569 97.718456 312.622914 
C 97.883111 312.458259 97.975626 312.234908 97.975626 312.002051 
C 97.975626 311.769193 97.883111 311.545842 97.718456 311.381187 
C 97.553801 311.216532 97.33045 311.124017 97.097593 311.124017 
C 96.864735 311.124017 96.641384 311.216532 96.476729 311.381187 
C 96.312074 311.545842 96.219559 311.769193 96.219559 312.002051 
C 96.219559 312.234908 96.312074 312.458259 96.476729 312.622914 
C 96.641384 312.787569 96.864735 312.880084 97.097593 312.880084 
z
" clip-path="url(#pfd899912d6)" style="fill: #ffffc7; fill-opacity: 0.8; stroke: #ffffc7; stroke-opacity: 0.8"/>
    <path d="M 420.427026 332.935788 
C 420.607424 332.935788 420.780458 332.864115 420.908019 332.736554 
C 421.035579 332.608993 421.107252 332.43596 421.107252 332.255561 
C 421.107252 332.075163 421.035579 331.902129 420.908019 331.774569 
C 420.780458 331.647008 420.607424 331.575335 420.427026 331.575335 
C 420.246628 331.575335 420.073594 331.647008 419.946033 331.774569 
C 419.818472 331.902129 419.746799 332.075163 419.746799 332.255561 
C 419.746799 332.43596 419.818472 332.608993 419.946033 332.736554 
C 420.073594 332.864115 420.246628 332.935788 420.427026 332.935788 
z
" clip-path="url(#pfd899912d6)" style="fill: #ffffc5; fill-opacity: 0.8; stroke: #ffffc5; stroke-opacity: 0.8"/>
    <path d="M 270.533971 107.345159 
C 270.723317 107.345159 270.904934 107.269931 271.038821 107.136043 
C 271.172709 107.002155 271.247937 106.820539 271.247937 106.631193 
C 271.247937 106.441847 271.172709 106.26023 271.038821 106.126342 
C 270.904934 105.992455 270.723317 105.917227 270.533971 105.917227 
C 270.344625 105.917227 270.163009 105.992455 270.029121 106.126342 
C 269.895233 106.26023 269.820005 106.441847 269.820005 106.631193 
C 269.820005 106.820539 269.895233 107.002155 270.029121 107.136043 
C 270.163009 107.269931 270.344625 107.345159 270.533971 107.345159 
z
" clip-path="url(#pfd899912d6)" style="fill: #fffff6; fill-opacity: 0.8; stroke: #fffff6; stroke-opacity: 0.8"/>
    <path d="M 131.80325 353.451056 
C 132.026231 353.451056 132.24011 353.362465 132.397781 353.204793 
C 132.555452 353.047122 132.644044 352.833244 132.644044 352.610263 
C 132.644044 352.387282 132.555452 352.173403 132.397781 352.015732 
C 132.24011 351.858061 132.026231 351.769469 131.80325 351.769469 
C 131.580269 351.769469 131.366391 351.858061 131.20872 352.015732 
C 131.051049 352.173403 130.962457 352.387282 130.962457 352.610263 
C 130.962457 352.833244 131.051049 353.047122 131.20872 353.204793 
C 131.366391 353.362465 131.580269 353.451056 131.80325 353.451056 
z
" clip-path="url(#pfd899912d6)" style="fill: #ffffd9; fill-opacity: 0.8; stroke: #ffffd9; stroke-opacity: 0.8"/>
    <path d="M 402.869435 342.594952 
C 403.079844 342.594952 403.281663 342.511355 403.430444 342.362574 
C 403.579225 342.213793 403.662821 342.011974 403.662821 341.801566 
C 403.662821 341.591157 403.579225 341.389339 403.430444 341.240557 
C 403.281663 341.091776 403.079844 341.00818 402.869435 341.00818 
C 402.659027 341.00818 402.457208 341.091776 402.308427 341.240557 
C 402.159646 341.389339 402.07605 341.591157 402.07605 341.801566 
C 402.07605 342.011974 402.159646 342.213793 402.308427 342.362574 
C 402.457208 342.511355 402.659027 342.594952 402.869435 342.594952 
z
" clip-path="url(#pfd899912d6)" style="fill: #fffff3; fill-opacity: 0.8; stroke: #fffff3; stroke-opacity: 0.8"/>
    <path d="M 130.495448 392.823232 
C 130.666362 392.823232 130.8303 392.755327 130.951155 392.634472 
C 131.07201 392.513617 131.139915 392.349679 131.139915 392.178764 
C 131.139915 392.007849 131.07201 391.843912 130.951155 391.723057 
C 130.8303 391.602202 130.666362 391.534297 130.495448 391.534297 
C 130.324533 391.534297 130.160595 391.602202 130.03974 391.723057 
C 129.918885 391.843912 129.85098 392.007849 129.85098 392.178764 
C 129.85098 392.349679 129.918885 392.513617 130.03974 392.634472 
C 130.160595 392.755327 130.324533 392.823232 130.495448 392.823232 
z
" clip-path="url(#pfd899912d6)" style="fill: #ffffc7; fill-opacity: 0.8; stroke: #ffffc7; stroke-opacity: 0.8"/>
    <path d="M 142.402852 456.773509 
C 142.520333 456.773509 142.633019 456.726833 142.716091 456.643761 
C 142.799164 456.560689 142.84584 456.448003 142.84584 456.330521 
C 142.84584 456.213039 142.799164 456.100353 142.716091 456.017281 
C 142.633019 455.934209 142.520333 455.887533 142.402852 455.887533 
C 142.28537 455.887533 142.172684 455.934209 142.089612 456.017281 
C 142.006539 456.100353 141.959863 456.213039 141.959863 456.330521 
C 141.959863 456.448003 142.006539 456.560689 142.089612 456.643761 
C 142.172684 456.726833 142.28537 456.773509 142.402852 456.773509 
z
" clip-path="url(#pfd899912d6)" style="fill: #ffffbb; fill-opacity: 0.8; stroke: #ffffbb; stroke-opacity: 0.8"/>
    <path d="M 261.983207 119.932727 
C 262.195583 119.932727 262.399288 119.84835 262.549461 119.698177 
C 262.699633 119.548005 262.78401 119.344299 262.78401 119.131924 
C 262.78401 118.919548 262.699633 118.715843 262.549461 118.56567 
C 262.399288 118.415498 262.195583 118.331121 261.983207 118.331121 
C 261.770832 118.331121 261.567126 118.415498 261.416954 118.56567 
C 261.266781 118.715843 261.182404 118.919548 261.182404 119.131924 
C 261.182404 119.344299 261.266781 119.548005 261.416954 119.698177 
C 261.567126 119.84835 261.770832 119.932727 261.983207 119.932727 
z
" clip-path="url(#pfd899912d6)" style="fill: #ffffc2; fill-opacity: 0.8; stroke: #ffffc2; stroke-opacity: 0.8"/>
    <path d="M 290.455266 184.37291 
C 290.693577 184.37291 290.922158 184.278228 291.090669 184.109717 
C 291.25918 183.941206 291.353862 183.712625 291.353862 183.474314 
C 291.353862 183.236004 291.25918 183.007422 291.090669 182.838912 
C 290.922158 182.670401 290.693577 182.575719 290.455266 182.575719 
C 290.216956 182.575719 289.988375 182.670401 289.819864 182.838912 
C 289.651353 183.007422 289.556671 183.236004 289.556671 183.474314 
C 289.556671 183.712625 289.651353 183.941206 289.819864 184.109717 
C 289.988375 184.278228 290.216956 184.37291 290.455266 184.37291 
z
" clip-path="url(#pfd899912d6)" style="fill: #fffff8; fill-opacity: 0.8; stroke: #fffff8; stroke-opacity: 0.8"/>
    <path d="M 106.690181 145.224419 
C 106.937554 145.224419 107.174829 145.126136 107.349749 144.951217 
C 107.524668 144.776297 107.622951 144.539022 107.622951 144.291649 
C 107.622951 144.044275 107.524668 143.807 107.349749 143.632081 
C 107.174829 143.457162 106.937554 143.358879 106.690181 143.358879 
C 106.442807 143.358879 106.205532 143.457162 106.030613 143.632081 
C 105.855693 143.807 105.757411 144.044275 105.757411 144.291649 
C 105.757411 144.539022 105.855693 144.776297 106.030613 144.951217 
C 106.205532 145.126136 106.442807 145.224419 106.690181 145.224419 
z
" clip-path="url(#pfd899912d6)" style="fill: #ffffe7; fill-opacity: 0.8; stroke: #ffffe7; stroke-opacity: 0.8"/>
    <path d="M 184.582336 482.269464 
C 184.690027 482.269464 184.793322 482.226677 184.869472 482.150528 
C 184.945621 482.074378 184.988407 481.971083 184.988407 481.863392 
C 184.988407 481.7557 184.945621 481.652405 184.869472 481.576255 
C 184.793322 481.500106 184.690027 481.45732 184.582336 481.45732 
C 184.474644 481.45732 184.371349 481.500106 184.295199 481.576255 
C 184.21905 481.652405 184.176264 481.7557 184.176264 481.863392 
C 184.176264 481.971083 184.21905 482.074378 184.295199 482.150528 
C 184.371349 482.226677 184.474644 482.269464 184.582336 482.269464 
z
" clip-path="url(#pfd899912d6)" style="fill: #ffffcc; fill-opacity: 0.8; stroke: #ffffcc; stroke-opacity: 0.8"/>
    <path d="M 130.0445 345.666802 
C 130.239479 345.666802 130.426497 345.589336 130.564368 345.451466 
C 130.702239 345.313595 130.779704 345.126576 130.779704 344.931598 
C 130.779704 344.736619 130.702239 344.5496 130.564368 344.41173 
C 130.426497 344.273859 130.239479 344.196393 130.0445 344.196393 
C 129.849522 344.196393 129.662503 344.273859 129.524632 344.41173 
C 129.386762 344.5496 129.309296 344.736619 129.309296 344.931598 
C 129.309296 345.126576 129.386762 345.313595 129.524632 345.451466 
C 129.662503 345.589336 129.849522 345.666802 130.0445 345.666802 
z
" clip-path="url(#pfd899912d6)" style="fill: #ffffe0; fill-opacity: 0.8; stroke: #ffffe0; stroke-opacity: 0.8"/>
    <path d="M 247.883626 240.770697 
C 248.084586 240.770697 248.277343 240.690855 248.419444 240.548754 
C 248.561545 240.406653 248.641387 240.213897 248.641387 240.012936 
C 248.641387 239.811975 248.561545 239.619218 248.419444 239.477118 
C 248.277343 239.335017 248.084586 239.255174 247.883626 239.255174 
C 247.682665 239.255174 247.489908 239.335017 247.347807 239.477118 
C 247.205707 239.619218 247.125864 239.811975 247.125864 240.012936 
C 247.125864 240.213897 247.205707 240.406653 247.347807 240.548754 
C 247.489908 240.690855 247.682665 240.770697 247.883626 240.770697 
z
" clip-path="url(#pfd899912d6)" style="fill: #ffffba; fill-opacity: 0.8; stroke: #ffffba; stroke-opacity: 0.8"/>
    <path d="M 323.538651 136.138242 
C 323.72584 136.138242 323.905388 136.063871 324.037751 135.931508 
C 324.170114 135.799145 324.244485 135.619597 324.244485 135.432407 
C 324.244485 135.245218 324.170114 135.06567 324.037751 134.933307 
C 323.905388 134.800944 323.72584 134.726572 323.538651 134.726572 
C 323.351461 134.726572 323.171913 134.800944 323.03955 134.933307 
C 322.907187 135.06567 322.832816 135.245218 322.832816 135.432407 
C 322.832816 135.619597 322.907187 135.799145 323.03955 135.931508 
C 323.171913 136.063871 323.351461 136.138242 323.538651 136.138242 
z
" clip-path="url(#pfd899912d6)" style="fill: #fffffa; fill-opacity: 0.8; stroke: #fffffa; stroke-opacity: 0.8"/>
    <path d="M 116.037658 394.623477 
C 116.282971 394.623477 116.518269 394.526014 116.691731 394.352552 
C 116.865193 394.17909 116.962656 393.943792 116.962656 393.698479 
C 116.962656 393.453167 116.865193 393.217869 116.691731 393.044407 
C 116.518269 392.870945 116.282971 392.773481 116.037658 392.773481 
C 115.792346 392.773481 115.557048 392.870945 115.383586 393.044407 
C 115.210124 393.217869 115.112661 393.453167 115.112661 393.698479 
C 115.112661 393.943792 115.210124 394.17909 115.383586 394.352552 
C 115.557048 394.526014 115.792346 394.623477 116.037658 394.623477 
z
" clip-path="url(#pfd899912d6)" style="fill: #ffffee; fill-opacity: 0.8; stroke: #ffffee; stroke-opacity: 0.8"/>
    <path d="M 297.887117 462.010221 
C 298.132101 462.010221 298.367084 461.912887 298.540314 461.739658 
C 298.713543 461.566428 298.810876 461.331445 298.810876 461.086461 
C 298.810876 460.841477 298.713543 460.606494 298.540314 460.433265 
C 298.367084 460.260035 298.132101 460.162702 297.887117 460.162702 
C 297.642133 460.162702 297.40715 460.260035 297.23392 460.433265 
C 297.060691 460.606494 296.963358 460.841477 296.963358 461.086461 
C 296.963358 461.331445 297.060691 461.566428 297.23392 461.739658 
C 297.40715 461.912887 297.642133 462.010221 297.887117 462.010221 
z
" clip-path="url(#pfd899912d6)" style="fill: #ffffdb; fill-opacity: 0.8; stroke: #ffffdb; stroke-opacity: 0.8"/>
    <path d="M 131.456956 444.926404 
C 131.703713 444.926404 131.940396 444.828366 132.11488 444.653883 
C 132.289363 444.479399 132.387401 444.242716 132.387401 443.995959 
C 132.387401 443.749202 132.289363 443.512518 132.11488 443.338035 
C 131.940396 443.163552 131.703713 443.065514 131.456956 443.065514 
C 131.210199 443.065514 130.973516 443.163552 130.799032 443.338035 
C 130.624549 443.512518 130.526511 443.749202 130.526511 443.995959 
C 130.526511 444.242716 130.624549 444.479399 130.799032 444.653883 
C 130.973516 444.828366 131.210199 444.926404 131.456956 444.926404 
z
" clip-path="url(#pfd899912d6)" style="fill: #ffffca; fill-opacity: 0.8; stroke: #ffffca; stroke-opacity: 0.8"/>
    <path d="M 157.357994 176.161518 
C 157.47123 176.161518 157.579843 176.116529 157.659913 176.036459 
C 157.739983 175.956389 157.784972 175.847776 157.784972 175.734539 
C 157.784972 175.621303 157.739983 175.51269 157.659913 175.43262 
C 157.579843 175.35255 157.47123 175.307561 157.357994 175.307561 
C 157.244757 175.307561 157.136144 175.35255 157.056074 175.43262 
C 156.976004 175.51269 156.931015 175.621303 156.931015 175.734539 
C 156.931015 175.847776 156.976004 175.956389 157.056074 176.036459 
C 157.136144 176.116529 157.244757 176.161518 157.357994 176.161518 
z
" clip-path="url(#pfd899912d6)" style="fill: #ffffca; fill-opacity: 0.8; stroke: #ffffca; stroke-opacity: 0.8"/>
    <path d="M 185.634605 434.530203 
C 185.830208 434.530203 186.017826 434.452489 186.156138 434.314177 
C 186.29445 434.175864 186.372164 433.988246 186.372164 433.792643 
C 186.372164 433.59704 186.29445 433.409423 186.156138 433.27111 
C 186.017826 433.132798 185.830208 433.055084 185.634605 433.055084 
C 185.439002 433.055084 185.251384 433.132798 185.113072 433.27111 
C 184.97476 433.409423 184.897046 433.59704 184.897046 433.792643 
C 184.897046 433.988246 184.97476 434.175864 185.113072 434.314177 
C 185.251384 434.452489 185.439002 434.530203 185.634605 434.530203 
z
" clip-path="url(#pfd899912d6)" style="fill: #ffffe3; fill-opacity: 0.8; stroke: #ffffe3; stroke-opacity: 0.8"/>
    <path d="M 322.613307 99.175909 
C 322.836374 99.175909 323.050335 99.087284 323.208067 98.929552 
C 323.365799 98.771819 323.454425 98.557858 323.454425 98.334791 
C 323.454425 98.111724 323.365799 97.897764 323.208067 97.740031 
C 323.050335 97.582299 322.836374 97.493674 322.613307 97.493674 
C 322.39024 97.493674 322.176279 97.582299 322.018547 97.740031 
C 321.860815 97.897764 321.772189 98.111724 321.772189 98.334791 
C 321.772189 98.557858 321.860815 98.771819 322.018547 98.929552 
C 322.176279 99.087284 322.39024 99.175909 322.613307 99.175909 
z
" clip-path="url(#pfd899912d6)" style="fill: #fffff5; fill-opacity: 0.8; stroke: #fffff5; stroke-opacity: 0.8"/>
    <path d="M 119.187101 119.960555 
C 119.43427 119.960555 119.67135 119.862354 119.846125 119.687579 
C 120.0209 119.512804 120.119101 119.275725 120.119101 119.028556 
C 120.119101 118.781387 120.0209 118.544308 119.846125 118.369533 
C 119.67135 118.194758 119.43427 118.096556 119.187101 118.096556 
C 118.939932 118.096556 118.702853 118.194758 118.528078 118.369533 
C 118.353303 118.544308 118.255102 118.781387 118.255102 119.028556 
C 118.255102 119.275725 118.353303 119.512804 118.528078 119.687579 
C 118.702853 119.862354 118.939932 119.960555 119.187101 119.960555 
z
" clip-path="url(#pfd899912d6)" style="fill: #ffffe5; fill-opacity: 0.8; stroke: #ffffe5; stroke-opacity: 0.8"/>
    <path d="M 456.905676 454.157166 
C 457.121846 454.157166 457.329191 454.071281 457.482046 453.918425 
C 457.634902 453.76557 457.720787 453.558225 457.720787 453.342055 
C 457.720787 453.125885 457.634902 452.918539 457.482046 452.765684 
C 457.329191 452.612829 457.121846 452.526943 456.905676 452.526943 
C 456.689506 452.526943 456.48216 452.612829 456.329305 452.765684 
C 456.17645 452.918539 456.090564 453.125885 456.090564 453.342055 
C 456.090564 453.558225 456.17645 453.76557 456.329305 453.918425 
C 456.48216 454.071281 456.689506 454.157166 456.905676 454.157166 
z
" clip-path="url(#pfd899912d6)" style="fill: #ffffc5; fill-opacity: 0.8; stroke: #ffffc5; stroke-opacity: 0.8"/>
    <path d="M 504.393448 239.678238 
C 504.514446 239.678238 504.630505 239.630165 504.716063 239.544607 
C 504.801622 239.459048 504.849695 239.34299 504.849695 239.221992 
C 504.849695 239.100994 504.801622 238.984935 504.716063 238.899377 
C 504.630505 238.813818 504.514446 238.765745 504.393448 238.765745 
C 504.27245 238.765745 504.156392 238.813818 504.070833 238.899377 
C 503.985275 238.984935 503.937202 239.100994 503.937202 239.221992 
C 503.937202 239.34299 503.985275 239.459048 504.070833 239.544607 
C 504.156392 239.630165 504.27245 239.678238 504.393448 239.678238 
z
" clip-path="url(#pfd899912d6)" style="fill: #ffffbc; fill-opacity: 0.8; stroke: #ffffbc; stroke-opacity: 0.8"/>
    <path d="M 303.396883 317.082268 
C 303.614606 317.082268 303.823441 316.995765 303.977394 316.841812 
C 304.131347 316.687858 304.21785 316.479023 304.21785 316.2613 
C 304.21785 316.043577 304.131347 315.834742 303.977394 315.680789 
C 303.823441 315.526835 303.614606 315.440333 303.396883 315.440333 
C 303.17916 315.440333 302.970325 315.526835 302.816371 315.680789 
C 302.662418 315.834742 302.575915 316.043577 302.575915 316.2613 
C 302.575915 316.479023 302.662418 316.687858 302.816371 316.841812 
C 302.970325 316.995765 303.17916 317.082268 303.396883 317.082268 
z
" clip-path="url(#pfd899912d6)" style="fill: #ffffd9; fill-opacity: 0.8; stroke: #ffffd9; stroke-opacity: 0.8"/>
    <path d="M 466.61088 395.046947 
C 466.7079 395.046947 466.800959 395.0084 466.869563 394.939797 
C 466.938166 394.871193 466.976713 394.778134 466.976713 394.681114 
C 466.976713 394.584094 466.938166 394.491035 466.869563 394.422432 
C 466.800959 394.353828 466.7079 394.315282 466.61088 394.315282 
C 466.51386 394.315282 466.420801 394.353828 466.352198 394.422432 
C 466.283594 394.491035 466.245048 394.584094 466.245048 394.681114 
C 466.245048 394.778134 466.283594 394.871193 466.352198 394.939797 
C 466.420801 395.0084 466.51386 395.046947 466.61088 395.046947 
z
" clip-path="url(#pfd899912d6)" style="fill: #ffffe1; fill-opacity: 0.8; stroke: #ffffe1; stroke-opacity: 0.8"/>
    <path d="M 368.561499 408.025609 
C 368.763857 408.025609 368.957955 407.945211 369.101044 407.802122 
C 369.244134 407.659033 369.324532 407.464935 369.324532 407.262577 
C 369.324532 407.060218 369.244134 406.86612 369.101044 406.723031 
C 368.957955 406.579942 368.763857 406.499544 368.561499 406.499544 
C 368.35914 406.499544 368.165042 406.579942 368.021953 406.723031 
C 367.878864 406.86612 367.798466 407.060218 367.798466 407.262577 
C 367.798466 407.464935 367.878864 407.659033 368.021953 407.802122 
C 368.165042 407.945211 368.35914 408.025609 368.561499 408.025609 
z
" clip-path="url(#pfd899912d6)" style="fill: #ffffd3; fill-opacity: 0.8; stroke: #ffffd3; stroke-opacity: 0.8"/>
    <path d="M 198.566371 465.171468 
C 198.669202 465.171468 198.767836 465.130612 198.840549 465.057899 
C 198.913262 464.985186 198.954117 464.886553 198.954117 464.783721 
C 198.954117 464.68089 198.913262 464.582256 198.840549 464.509543 
C 198.767836 464.43683 198.669202 464.395975 198.566371 464.395975 
C 198.463539 464.395975 198.364906 464.43683 198.292193 464.509543 
C 198.21948 464.582256 198.178625 464.68089 198.178625 464.783721 
C 198.178625 464.886553 198.21948 464.985186 198.292193 465.057899 
C 198.364906 465.130612 198.463539 465.171468 198.566371 465.171468 
z
" clip-path="url(#pfd899912d6)" style="fill: #ffffeb; fill-opacity: 0.8; stroke: #ffffeb; stroke-opacity: 0.8"/>
    <path d="M 88.413087 241.453885 
C 88.642442 241.453885 88.862435 241.362761 89.024614 241.200582 
C 89.186793 241.038404 89.277917 240.818411 89.277917 240.589055 
C 89.277917 240.3597 89.186793 240.139707 89.024614 239.977528 
C 88.862435 239.815349 88.642442 239.724225 88.413087 239.724225 
C 88.183731 239.724225 87.963738 239.815349 87.801559 239.977528 
C 87.63938 240.139707 87.548257 240.3597 87.548257 240.589055 
C 87.548257 240.818411 87.63938 241.038404 87.801559 241.200582 
C 87.963738 241.362761 88.183731 241.453885 88.413087 241.453885 
z
" clip-path="url(#pfd899912d6)" style="fill: #ffffde; fill-opacity: 0.8; stroke: #ffffde; stroke-opacity: 0.8"/>
    <path d="M 299.179044 395.305154 
C 299.391422 395.305154 299.59513 395.220775 299.745304 395.070601 
C 299.895478 394.920427 299.979856 394.716719 299.979856 394.504341 
C 299.979856 394.291963 299.895478 394.088255 299.745304 393.938081 
C 299.59513 393.787907 299.391422 393.703529 299.179044 393.703529 
C 298.966666 393.703529 298.762958 393.787907 298.612784 393.938081 
C 298.46261 394.088255 298.378231 394.291963 298.378231 394.504341 
C 298.378231 394.716719 298.46261 394.920427 298.612784 395.070601 
C 298.762958 395.220775 298.966666 395.305154 299.179044 395.305154 
z
" clip-path="url(#pfd899912d6)" style="fill: #ffffd1; fill-opacity: 0.8; stroke: #ffffd1; stroke-opacity: 0.8"/>
    <path d="M 190.405271 290.205868 
C 190.606545 290.205868 190.799602 290.125901 190.941924 289.983579 
C 191.084246 289.841257 191.164213 289.6482 191.164213 289.446926 
C 191.164213 289.245652 191.084246 289.052595 190.941924 288.910273 
C 190.799602 288.767951 190.606545 288.687984 190.405271 288.687984 
C 190.203997 288.687984 190.01094 288.767951 189.868618 288.910273 
C 189.726296 289.052595 189.646329 289.245652 189.646329 289.446926 
C 189.646329 289.6482 189.726296 289.841257 189.868618 289.983579 
C 190.01094 290.125901 190.203997 290.205868 190.405271 290.205868 
z
" clip-path="url(#pfd899912d6)" style="fill: #ffffd4; fill-opacity: 0.8; stroke: #ffffd4; stroke-opacity: 0.8"/>
    <path d="M 336.067798 290.707259 
C 336.279134 290.707259 336.481843 290.623294 336.631279 290.473857 
C 336.780716 290.32442 336.864681 290.121712 336.864681 289.910376 
C 336.864681 289.69904 336.780716 289.496332 336.631279 289.346895 
C 336.481843 289.197458 336.279134 289.113493 336.067798 289.113493 
C 335.856462 289.113493 335.653754 289.197458 335.504317 289.346895 
C 335.35488 289.496332 335.270915 289.69904 335.270915 289.910376 
C 335.270915 290.121712 335.35488 290.32442 335.504317 290.473857 
C 335.653754 290.623294 335.856462 290.707259 336.067798 290.707259 
z
" clip-path="url(#pfd899912d6)" style="fill: #ffffbc; fill-opacity: 0.8; stroke: #ffffbc; stroke-opacity: 0.8"/>
    <path d="M 119.269518 390.595411 
C 119.461683 390.595411 119.646003 390.519063 119.781885 390.383182 
C 119.917766 390.247301 119.994114 390.06298 119.994114 389.870815 
C 119.994114 389.67865 119.917766 389.494329 119.781885 389.358448 
C 119.646003 389.222567 119.461683 389.146219 119.269518 389.146219 
C 119.077353 389.146219 118.893032 389.222567 118.757151 389.358448 
C 118.62127 389.494329 118.544922 389.67865 118.544922 389.870815 
C 118.544922 390.06298 118.62127 390.247301 118.757151 390.383182 
C 118.893032 390.519063 119.077353 390.595411 119.269518 390.595411 
z
" clip-path="url(#pfd899912d6)" style="fill: #ffffd1; fill-opacity: 0.8; stroke: #ffffd1; stroke-opacity: 0.8"/>
   </g>
   <g id="patch_3">
    <path d="M 295.2 374.04 
C 317.25429 374.04 338.408262 365.277738 354.003 349.683 
C 369.597738 334.088262 378.36 312.93429 378.36 290.88 
C 378.36 268.82571 369.597738 247.671738 354.003 232.077 
C 338.408262 216.482262 317.25429 207.72 295.2 207.72 
C 273.14571 207.72 251.991738 216.482262 236.397 232.077 
C 220.802262 247.671738 212.04 268.82571 212.04 290.88 
C 212.04 312.93429 220.802262 334.088262 236.397 349.683 
C 251.991738 365.277738 273.14571 374.04 295.2 374.04 
L 295.2 374.04 
z
" clip-path="url(#pfd899912d6)" style="fill: none; stroke-dasharray: 1.85,0.8; stroke-dashoffset: 0; stroke: #808080; stroke-width: 0.5; stroke-linejoin: miter"/>
   </g>
   <g id="patch_4">
    <path d="M 295.2 429.48 
C 331.95715 429.48 367.21377 414.87623 393.205 388.885 
C 419.19623 362.89377 433.8 327.63715 433.8 290.88 
C 433.8 254.12285 419.19623 218.86623 393.205 192.875 
C 367.21377 166.88377 331.95715 152.28 295.2 152.28 
C 258.44285 152.28 223.18623 166.88377 197.195 192.875 
C 171.20377 218.86623 156.6 254.12285 156.6 290.88 
C 156.6 327.63715 171.20377 362.89377 197.195 388.885 
C 223.18623 414.87623 258.44285 429.48 295.2 429.48 
L 295.2 429.48 
z
" clip-path="url(#pfd899912d6)" style="fill: none; stroke-dasharray: 1.85,0.8; stroke-dashoffset: 0; stroke: #808080; stroke-width: 0.5; stroke-linejoin: miter"/>
   </g>
   <g id="patch_5">
    <path d="M 295.2 484.92 
C 346.66001 484.92 396.019278 464.474722 432.407 428.087 
C 468.794722 391.699278 489.24 342.34001 489.24 290.88 
C 489.24 239.41999 468.794722 190.060722 432.407 153.673 
C 396.019278 117.285278 346.66001 96.84 295.2 96.84 
C 243.73999 96.84 194.380722 117.285278 157.993 153.673 
C 121.605278 190.060722 101.16 239.41999 101.16 290.88 
C 101.16 342.34001 121.605278 391.699278 157.993 428.087 
C 194.380722 464.474722 243.73999 484.92 295.2 484.92 
L 295.2 484.92 
z
" clip-path="url(#pfd899912d6)" style="fill: none; stroke-dasharray: 1.85,0.8; stroke-dashoffset: 0; stroke: #808080; stroke-width: 0.5; stroke-linejoin: miter"/>
   </g>
   <g id="matplotlib.axis_1">
    <g id="xtick_1">
     <g id="line2d_1">
      <defs>
       <path id="me614b49d78" d="M 0 0 
L 0 3.5 
" style="stroke: #000000; stroke-width: 0.8"/>
      </defs>
      <g>
       <use xlink:href="#me614b49d78" x="73.44" y="512.64" style="stroke: #000000; stroke-width: 0.8"/>
      </g>
     </g>
     <g id="text_1">
      <!-- 4 -->
      <g transform="translate(66.068906 527.238438) scale(0.1 -0.1)">
       <defs>
        <path id="DejaVuSans-2212" d="M 678 2272 
L 4684 2272 
L 4684 1741 
L 678 1741 
L 678 2272 
z
" transform="scale(0.015625)"/>
        <path id="DejaVuSans-34" d="M 2419 4116 
L 825 1625 
L 2419 1625 
L 2419 4116 
z
M 2253 4666 
L 3047 4666 
L 3047 1625 
L 3713 1625 
L 3713 1100 
L 3047 1100 
L 3047 0 
L 2419 0 
L 2419 1100 
L 313 1100 
L 313 1709 
L 2253 4666 
z
" transform="scale(0.015625)"/>
       </defs>
       <use xlink:href="#DejaVuSans-2212"/>
       <use xlink:href="#DejaVuSans-34" transform="translate(83.789062 0)"/>
      </g>
     </g>
    </g>
    <g id="xtick_2">
     <g id="line2d_2">
      <g>
       <use xlink:href="#me614b49d78" x="128.88" y="512.64" style="stroke: #000000; stroke-width: 0.8"/>
      </g>
     </g>
     <g id="text_2">
      <!-- 3 -->
      <g transform="translate(121.508906 527.238438) scale(0.1 -0.1)">
       <defs>
        <path id="DejaVuSans-33" d="M 2597 2516 
Q 3050 2419 3304 2112 
Q 3559 1806 3559 1356 
Q 3559 666 3084 287 
Q 2609 -91 1734 -91 
Q 1441 -91 1130 -33 
Q 819 25 488 141 
L 488 750 
Q 750 597 1062 519 
Q 1375 441 1716 441 
Q 2309 441 2620 675 
Q 2931 909 2931 1356 
Q 2931 1769 2642 2001 
Q 2353 2234 1838 2234 
L 1294 2234 
L 1294 2753 
L 1863 2753 
Q 2328 2753 2575 2939 
Q 2822 3125 2822 3475 
Q 2822 3834 2567 4026 
Q 2313 4219 1838 4219 
Q 1578 4219 1281 4162 
Q 984 4106 628 3988 
L 628 4550 
Q 988 4650 1302 4700 
Q 1616 4750 1894 4750 
Q 2613 4750 3031 4423 
Q 3450 4097 3450 3541 
Q 3450 3153 3228 2886 
Q 3006 2619 2597 2516 
z
" transform="scale(0.015625)"/>
       </defs>
       <use xlink:href="#DejaVuSans-2212"/>
       <use xlink:href="#DejaVuSans-33" transform="translate(83.789062 0)"/>
      </g>
     </g>
    </g>
    <g id="xtick_3">
     <g id="line2d_3">
      <g>
       <use xlink:href="#me614b49d78" x="184.32" y="512.64" style="stroke: #000000; stroke-width: 0.8"/>
      </g>
     </g>
     <g id="text_3">
      <!-- 2 -->
      <g transform="translate(176.948906 527.238438) scale(0.1 -0.1)">
       <defs>
        <path id="DejaVuSans-32" d="M 1228 531 
L 3431 531 
L 3431 0 
L 469 0 
L 469 531 
Q 828 903 1448 1529 
Q 2069 2156 2228 2338 
Q 2531 2678 2651 2914 
Q 2772 3150 2772 3378 
Q 2772 3750 2511 3984 
Q 2250 4219 1831 4219 
Q 1534 4219 1204 4116 
Q 875 4013 500 3803 
L 500 4441 
Q 881 4594 1212 4672 
Q 1544 4750 1819 4750 
Q 2544 4750 2975 4387 
Q 3406 4025 3406 3419 
Q 3406 3131 3298 2873 
Q 3191 2616 2906 2266 
Q 2828 2175 2409 1742 
Q 1991 1309 1228 531 
z
" transform="scale(0.015625)"/>
       </defs>
       <use xlink:href="#DejaVuSans-2212"/>
       <use xlink:href="#DejaVuSans-32" transform="translate(83.789062 0)"/>
      </g>
     </g>
    </g>
    <g id="xtick_4">
     <g id="line2d_4">
      <g>
       <use xlink:href="#me614b49d78" x="239.76" y="512.64" style="stroke: #000000; stroke-width: 0.8"/>
      </g>
     </g>
     <g id="text_4">
      <!-- 1 -->
      <g transform="translate(232.388906 527.238438) scale(0.1 -0.1)">
       <defs>
        <path id="DejaVuSans-31" d="M 794 531 
L 1825 531 
L 1825 4091 
L 703 3866 
L 703 4441 
L 1819 4666 
L 2450 4666 
L 2450 531 
L 3481 531 
L 3481 0 
L 794 0 
L 794 531 
z
" transform="scale(0.015625)"/>
       </defs>
       <use xlink:href="#DejaVuSans-2212"/>
       <use xlink:href="#DejaVuSans-31" transform="translate(83.789062 0)"/>
      </g>
     </g>
    </g>
    <g id="xtick_5">
     <g id="line2d_5">
      <g>
       <use xlink:href="#me614b49d78" x="295.2" y="512.64" style="stroke: #000000; stroke-width: 0.8"/>
      </g>
     </g>
     <g id="text_5">
      <!-- 0 -->
      <g transform="translate(292.01875 527.238438) scale(0.1 -0.1)">
       <defs>
        <path id="DejaVuSans-30" d="M 2034 4250 
Q 1547 4250 1301 3770 
Q 1056 3291 1056 2328 
Q 1056 1369 1301 889 
Q 1547 409 2034 409 
Q 2525 409 2770 889 
Q 3016 1369 3016 2328 
Q 3016 3291 2770 3770 
Q 2525 4250 2034 4250 
z
M 2034 4750 
Q 2819 4750 3233 4129 
Q 3647 3509 3647 2328 
Q 3647 1150 3233 529 
Q 2819 -91 2034 -91 
Q 1250 -91 836 529 
Q 422 1150 422 2328 
Q 422 3509 836 4129 
Q 1250 4750 2034 4750 
z
" transform="scale(0.015625)"/>
       </defs>
       <use xlink:href="#DejaVuSans-30"/>
      </g>
     </g>
    </g>
    <g id="xtick_6">
     <g id="line2d_6">
      <g>
       <use xlink:href="#me614b49d78" x="350.64" y="512.64" style="stroke: #000000; stroke-width: 0.8"/>
      </g>
     </g>
     <g id="text_6">
      <!-- 1 -->
      <g transform="translate(347.45875 527.238438) scale(0.1 -0.1)">
       <use xlink:href="#DejaVuSans-31"/>
      </g>
     </g>
    </g>
    <g id="xtick_7">
     <g id="line2d_7">
      <g>
       <use xlink:href="#me614b49d78" x="406.08" y="512.64" style="stroke: #000000; stroke-width: 0.8"/>
      </g>
     </g>
     <g id="text_7">
      <!-- 2 -->
      <g transform="translate(402.89875 527.238438) scale(0.1 -0.1)">
       <use xlink:href="#DejaVuSans-32"/>
      </g>
     </g>
    </g>
    <g id="xtick_8">
     <g id="line2d_8">
      <g>
       <use xlink:href="#me614b49d78" x="461.52" y="512.64" style="stroke: #000000; stroke-width: 0.8"/>
      </g>
     </g>
     <g id="text_8">
      <!-- 3 -->
      <g transform="translate(458.33875 527.238438) scale(0.1 -0.1)">
       <use xlink:href="#DejaVuSans-33"/>
      </g>
     </g>
    </g>
    <g id="xtick_9">
     <g id="line2d_9">
      <g>
       <use xlink:href="#me614b49d78" x="516.96" y="512.64" style="stroke: #000000; stroke-width: 0.8"/>
      </g>
     </g>
     <g id="text_9">
      <!-- 4 -->
      <g transform="translate(513.77875 527.238438) scale(0.1 -0.1)">
       <use xlink:href="#DejaVuSans-34"/>
      </g>
     </g>
    </g>
   </g>
   <g id="matplotlib.axis_2">
    <g id="ytick_1">
     <g id="line2d_10">
      <defs>
       <path id="mfcd476aea6" d="M 0 0 
L -3.5 0 
" style="stroke: #000000; stroke-width: 0.8"/>
      </defs>
      <g>
       <use xlink:href="#mfcd476aea6" x="73.44" y="512.64" style="stroke: #000000; stroke-width: 0.8"/>
      </g>
     </g>
     <g id="text_10">
      <!-- 4 -->
      <g transform="translate(51.697812 516.439219) scale(0.1 -0.1)">
       <use xlink:href="#DejaVuSans-2212"/>
       <use xlink:href="#DejaVuSans-34" transform="translate(83.789062 0)"/>
      </g>
     </g>
    </g>
    <g id="ytick_2">
     <g id="line2d_11">
      <g>
       <use xlink:href="#mfcd476aea6" x="73.44" y="457.2" style="stroke: #000000; stroke-width: 0.8"/>
      </g>
     </g>
     <g id="text_11">
      <!-- 3 -->
      <g transform="translate(51.697812 460.999219) scale(0.1 -0.1)">
       <use xlink:href="#DejaVuSans-2212"/>
       <use xlink:href="#DejaVuSans-33" transform="translate(83.789062 0)"/>
      </g>
     </g>
    </g>
    <g id="ytick_3">
     <g id="line2d_12">
      <g>
       <use xlink:href="#mfcd476aea6" x="73.44" y="401.76" style="stroke: #000000; stroke-width: 0.8"/>
      </g>
     </g>
     <g id="text_12">
      <!-- 2 -->
      <g transform="translate(51.697812 405.559219) scale(0.1 -0.1)">
       <use xlink:href="#DejaVuSans-2212"/>
       <use xlink:href="#DejaVuSans-32" transform="translate(83.789062 0)"/>
      </g>
     </g>
    </g>
    <g id="ytick_4">
     <g id="line2d_13">
      <g>
       <use xlink:href="#mfcd476aea6" x="73.44" y="346.32" style="stroke: #000000; stroke-width: 0.8"/>
      </g>
     </g>
     <g id="text_13">
      <!-- 1 -->
      <g transform="translate(51.697812 350.119219) scale(0.1 -0.1)">
       <use xlink:href="#DejaVuSans-2212"/>
       <use xlink:href="#DejaVuSans-31" transform="translate(83.789062 0)"/>
      </g>
     </g>
    </g>
    <g id="ytick_5">
     <g id="line2d_14">
      <g>
       <use xlink:href="#mfcd476aea6" x="73.44" y="290.88" style="stroke: #000000; stroke-width: 0.8"/>
      </g>
     </g>
     <g id="text_14">
      <!-- 0 -->
      <g transform="translate(60.0775 294.679219) scale(0.1 -0.1)">
       <use xlink:href="#DejaVuSans-30"/>
      </g>
     </g>
    </g>
    <g id="ytick_6">
     <g id="line2d_15">
      <g>
       <use xlink:href="#mfcd476aea6" x="73.44" y="235.44" style="stroke: #000000; stroke-width: 0.8"/>
      </g>
     </g>
     <g id="text_15">
      <!-- 1 -->
      <g transform="translate(60.0775 239.239219) scale(0.1 -0.1)">
       <use xlink:href="#DejaVuSans-31"/>
      </g>
     </g>
    </g>
    <g id="ytick_7">
     <g id="line2d_16">
      <g>
       <use xlink:href="#mfcd476aea6" x="73.44" y="180" style="stroke: #000000; stroke-width: 0.8"/>
      </g>
     </g>
     <g id="text_16">
      <!-- 2 -->
      <g transform="translate(60.0775 183.799219) scale(0.1 -0.1)">
       <use xlink:href="#DejaVuSans-32"/>
      </g>
     </g>
    </g>
    <g id="ytick_8">
     <g id="line2d_17">
      <g>
       <use xlink:href="#mfcd476aea6" x="73.44" y="124.56" style="stroke: #000000; stroke-width: 0.8"/>
      </g>
     </g>
     <g id="text_17">
      <!-- 3 -->
      <g transform="translate(60.0775 128.359219) scale(0.1 -0.1)">
       <use xlink:href="#DejaVuSans-33"/>
      </g>
     </g>
    </g>
    <g id="ytick_9">
     <g id="line2d_18">
      <g>
       <use xlink:href="#mfcd476aea6" x="73.44" y="69.12" style="stroke: #000000; stroke-width: 0.8"/>
      </g>
     </g>
     <g id="text_18">
      <!-- 4 -->
      <g transform="translate(60.0775 72.919219) scale(0.1 -0.1)">
       <use xlink:href="#DejaVuSans-34"/>
      </g>
     </g>
    </g>
   </g>
   <g id="patch_6">
    <path d="M 73.44 512.64 
L 73.44 69.12 
" style="fill: none; stroke: #000000; stroke-width: 0.8; stroke-linejoin: miter; stroke-linecap: square"/>
   </g>
   <g id="patch_7">
    <path d="M 516.96 512.64 
L 516.96 69.12 
" style="fill: none; stroke: #000000; stroke-width: 0.8; stroke-linejoin: miter; stroke-linecap: square"/>
   </g>
   <g id="patch_8">
    <path d="M 73.44 512.64 
L 516.96 512.64 
" style="fill: none; stroke: #000000; stroke-width: 0.8; stroke-linejoin: miter; stroke-linecap: square"/>
   </g>
   <g id="patch_9">
    <path d="M 73.44 69.12 
L 516.96 69.12 
" style="fill: none; stroke: #000000; stroke-width: 0.8; stroke-linejoin: miter; stroke-linecap: square"/>
   </g>
   <g id="patch_10">
    <path d="M 378.33455 299.910769 
C 381.275122 299.910769 384.095652 298.742467 386.17495 296.663169 
C 388.254248 294.58387 389.42255 291.763341 389.42255 288.822769 
C 389.42255 285.882197 388.254248 283.061667 386.17495 280.982369 
C 384.095652 278.90307 381.275122 277.734769 378.33455 277.734769 
C 375.393978 277.734769 372.573448 278.90307 370.49415 280.982369 
C 368.414852 283.061667 367.24655 285.882197 367.24655 288.822769 
C 367.24655 291.763341 368.414852 294.58387 370.49415 296.663169 
C 372.573448 298.742467 375.393978 299.910769 378.33455 299.910769 
z
" clip-path="url(#pfd899912d6)" style="fill: #0000ff; stroke: #0000ff; stroke-linejoin: miter"/>
   </g>
   <g id="patch_11">
    <path d="M 197.561271 198.054093 
C 199.031557 198.054093 200.441822 197.469942 201.481471 196.430293 
C 202.52112 195.390644 203.105271 193.980379 203.105271 192.510093 
C 203.105271 191.039807 202.52112 189.629542 201.481471 188.589893 
C 200.441822 187.550244 199.031557 186.966093 197.561271 186.966093 
C 196.090985 186.966093 194.68072 187.550244 193.641071 188.589893 
C 192.601422 189.629542 192.017271 191.039807 192.017271 192.510093 
C 192.017271 193.980379 192.601422 195.390644 193.641071 196.430293 
C 194.68072 197.469942 196.090985 198.054093 197.561271 198.054093 
z
" clip-path="url(#pfd899912d6)" style="fill: #ff0000; stroke: #ff0000; stroke-linejoin: miter"/>
   </g>
   <g id="patch_12">
    <path d="M 450.705097 179.256222 
C 451.881326 179.256222 453.009538 178.788901 453.841257 177.957182 
C 454.672977 177.125463 455.140297 175.997251 455.140297 174.821022 
C 455.140297 173.644793 454.672977 172.516581 453.841257 171.684862 
C 453.009538 170.853143 451.881326 170.385822 450.705097 170.385822 
C 449.528868 170.385822 448.400657 170.853143 447.568937 171.684862 
C 446.737218 172.516581 446.269897 173.644793 446.269897 174.821022 
C 446.269897 175.997251 446.737218 177.125463 447.568937 177.957182 
C 448.400657 178.788901 449.528868 179.256222 450.705097 179.256222 
z
" clip-path="url(#pfd899912d6)" style="fill: #008000; stroke: #008000; stroke-linejoin: miter"/>
   </g>
   <g id="patch_13">
    <path d="M 295.2 324.144 
C 304.021716 324.144 312.483305 320.639095 318.7212 314.4012 
C 324.959095 308.163305 328.464 299.701716 328.464 290.88 
C 328.464 282.058284 324.959095 273.596695 318.7212 267.3588 
C 312.483305 261.120905 304.021716 257.616 295.2 257.616 
C 286.378284 257.616 277.916695 261.120905 271.6788 267.3588 
C 265.440905 273.596695 261.936 282.058284 261.936 290.88 
C 261.936 299.701716 265.440905 308.163305 271.6788 314.4012 
C 277.916695 320.639095 286.378284 324.144 295.2 324.144 
z
" clip-path="url(#pfd899912d6)" style="fill: #ffff00; stroke: #ffff00; stroke-linejoin: miter"/>
   </g>
  </g>
 </g>
 <defs>
  <clipPath id="pfd899912d6">
   <rect x="73.44" y="69.12" width="443.52" height="443.52"/>
  </clipPath>
 </defs>
</svg>
